<svg id="svg" version="1.1" xmlns="http://www.w3.org/2000/svg" xmlns:xlink="http://www.w3.org/1999/xlink" width="400" height="400" viewBox="0, 0, 400,400"><g id="svgg"><path id="path0" d="M317.800 14.800 C 317.664 15.020,316.404 15.200,315.000 15.200 C 313.596 15.200,312.336 15.380,312.200 15.600 C 312.064 15.820,311.243 16.000,310.376 16.000 C 309.509 16.000,308.800 16.180,308.800 16.400 C 308.800 16.620,308.170 16.800,307.400 16.800 C 306.630 16.800,306.000 16.980,306.000 17.200 C 306.000 17.420,305.460 17.600,304.800 17.600 C 304.140 17.600,303.600 17.780,303.600 18.000 C 303.600 18.220,303.060 18.400,302.400 18.400 C 301.740 18.400,301.200 18.580,301.200 18.800 C 301.200 19.020,300.840 19.200,300.400 19.200 C 299.960 19.200,299.600 19.380,299.600 19.600 C 299.600 19.820,299.150 20.000,298.600 20.000 C 298.050 20.000,297.599 20.135,297.599 20.300 C 297.598 20.465,296.608 21.050,295.400 21.600 C 294.192 22.150,293.202 22.735,293.201 22.900 C 293.201 23.065,292.930 23.200,292.600 23.200 C 292.270 23.200,292.000 23.380,292.000 23.600 C 292.000 23.820,291.816 24.000,291.592 24.000 C 291.368 24.000,290.423 24.481,289.492 25.068 C 288.561 25.656,287.741 26.094,287.670 26.042 C 287.598 25.990,287.238 26.276,286.870 26.678 C 286.501 27.080,285.493 27.935,284.630 28.578 C 282.989 29.800,276.833 35.889,276.864 36.258 C 276.874 36.376,276.505 36.905,276.044 37.436 C 275.583 37.966,275.322 38.400,275.464 38.400 C 275.606 38.400,275.335 38.736,274.861 39.147 C 274.388 39.558,274.000 40.122,274.000 40.400 C 274.000 40.678,273.684 41.197,273.297 41.553 C 272.911 41.909,272.340 42.695,272.030 43.300 C 271.719 43.905,271.315 44.400,271.132 44.400 C 270.950 44.400,270.800 44.670,270.800 45.000 C 270.800 45.330,270.620 45.600,270.400 45.600 C 270.180 45.600,270.000 45.960,270.000 46.400 C 270.000 46.840,269.820 47.200,269.600 47.200 C 269.380 47.200,269.200 47.560,269.200 48.000 C 269.200 48.440,269.020 48.800,268.800 48.800 C 268.580 48.800,268.400 49.160,268.400 49.600 C 268.400 50.040,268.224 50.400,268.010 50.400 C 267.788 50.400,267.726 50.928,267.865 51.624 C 267.999 52.297,267.905 53.287,267.655 53.824 C 265.900 57.590,264.569 62.868,263.677 69.600 C 263.516 70.810,263.525 74.590,263.697 78.000 C 263.868 81.410,264.019 84.470,264.031 84.800 C 264.107 86.863,266.255 95.473,266.870 96.180 C 267.051 96.389,267.200 96.796,267.200 97.084 C 267.200 98.863,273.510 110.361,275.605 112.400 C 275.719 112.510,276.619 113.586,277.605 114.791 C 280.454 118.269,281.815 119.599,286.843 123.818 C 289.472 126.025,293.384 128.408,298.255 130.771 C 303.449 133.290,304.163 135.168,301.992 140.600 C 301.816 141.040,301.570 141.670,301.445 142.000 C 301.319 142.330,300.768 143.320,300.219 144.200 C 297.805 148.069,297.804 148.074,298.780 148.864 C 300.476 150.238,313.109 147.341,316.600 144.779 C 316.820 144.617,317.720 144.088,318.600 143.603 C 320.473 142.570,323.479 140.299,325.955 138.049 C 327.465 136.675,328.105 136.391,330.555 136.003 C 336.035 135.137,339.830 134.285,343.328 133.134 C 345.848 132.305,347.247 132.048,348.228 132.232 C 349.122 132.399,349.600 132.334,349.600 132.045 C 349.600 131.800,349.960 131.600,350.400 131.600 C 350.840 131.600,351.200 131.420,351.200 131.200 C 351.200 130.980,351.560 130.800,352.000 130.800 C 352.440 130.800,352.801 130.665,352.803 130.500 C 352.807 130.135,354.749 129.200,355.503 129.200 C 355.802 129.200,355.949 129.041,355.829 128.846 C 355.709 128.652,356.148 128.270,356.805 127.998 C 357.462 127.726,358.000 127.345,358.000 127.151 C 358.000 126.958,358.288 126.800,358.640 126.800 C 358.991 126.800,359.758 126.305,360.343 125.700 C 360.929 125.095,361.676 124.547,362.004 124.483 C 362.332 124.419,362.915 123.994,363.300 123.539 C 363.685 123.084,364.000 122.833,364.000 122.983 C 364.000 123.132,365.890 121.327,368.200 118.972 C 370.510 116.617,372.400 114.484,372.400 114.233 C 372.400 113.982,372.750 113.524,373.179 113.215 C 373.607 112.907,373.866 112.507,373.755 112.327 C 373.644 112.147,373.722 112.000,373.928 112.000 C 374.134 112.000,374.527 111.460,374.800 110.800 C 375.073 110.140,375.455 109.600,375.649 109.600 C 375.842 109.600,376.000 109.280,376.000 108.888 C 376.000 108.497,376.360 107.917,376.800 107.600 C 377.240 107.283,377.600 106.693,377.600 106.288 C 377.600 105.884,377.780 105.664,378.000 105.800 C 378.220 105.936,378.400 105.772,378.400 105.436 C 378.400 105.099,378.760 104.183,379.200 103.400 C 379.640 102.617,380.000 101.701,380.000 101.364 C 380.000 101.028,380.142 100.840,380.315 100.948 C 380.488 101.055,380.670 100.660,380.719 100.071 C 380.767 99.482,380.985 98.940,381.203 98.867 C 381.422 98.793,381.600 98.288,381.600 97.743 C 381.600 97.198,381.742 96.840,381.915 96.948 C 382.088 97.055,382.269 96.670,382.317 96.094 C 382.365 95.517,382.542 94.945,382.711 94.822 C 382.879 94.700,383.075 93.970,383.146 93.200 C 383.216 92.430,383.437 91.740,383.637 91.667 C 383.837 91.593,384.000 90.828,384.000 89.967 C 384.000 89.105,384.152 88.400,384.337 88.400 C 384.522 88.400,384.712 87.185,384.759 85.700 C 384.806 84.215,385.014 82.940,385.222 82.867 C 385.745 82.682,385.723 69.200,385.200 69.200 C 384.978 69.200,384.800 68.141,384.800 66.824 C 384.800 65.517,384.620 64.336,384.400 64.200 C 384.180 64.064,384.000 63.258,384.000 62.410 C 384.000 61.561,383.828 60.807,383.618 60.733 C 383.407 60.660,383.190 59.925,383.136 59.100 C 383.081 58.275,382.893 57.600,382.718 57.600 C 382.543 57.600,382.400 57.161,382.400 56.624 C 382.400 56.087,382.220 55.536,382.000 55.400 C 381.780 55.264,381.600 54.818,381.600 54.410 C 381.600 54.001,381.422 53.607,381.203 53.533 C 380.985 53.460,380.767 52.918,380.719 52.329 C 380.670 51.740,380.488 51.345,380.315 51.452 C 380.142 51.560,380.000 51.187,380.000 50.624 C 380.000 50.061,379.820 49.600,379.600 49.600 C 379.380 49.600,379.200 49.240,379.200 48.800 C 379.200 48.360,379.020 48.000,378.800 48.000 C 378.580 48.000,378.400 47.629,378.400 47.176 C 378.400 46.723,378.250 46.445,378.068 46.558 C 377.885 46.671,377.491 46.142,377.193 45.382 C 376.895 44.622,376.504 44.000,376.325 44.000 C 376.146 44.000,376.000 43.796,376.000 43.547 C 376.000 43.298,375.612 42.758,375.139 42.347 C 374.665 41.936,374.423 41.600,374.601 41.600 C 374.779 41.600,374.598 41.240,374.200 40.800 C 373.802 40.360,373.592 40.000,373.734 40.000 C 373.998 40.000,373.147 38.858,371.900 37.540 C 371.515 37.133,371.289 36.800,371.398 36.800 C 371.507 36.800,369.508 34.730,366.957 32.200 C 364.406 29.670,362.133 27.600,361.906 27.600 C 361.679 27.600,361.158 27.212,360.747 26.739 C 360.336 26.265,359.997 26.040,359.994 26.239 C 359.991 26.437,359.854 26.389,359.690 26.132 C 359.526 25.875,359.124 25.605,358.796 25.532 C 358.468 25.459,357.930 25.116,357.600 24.770 C 357.270 24.423,356.428 23.890,355.729 23.585 C 355.030 23.280,354.545 22.888,354.652 22.715 C 354.760 22.542,354.567 22.400,354.224 22.400 C 353.881 22.400,353.600 22.220,353.600 22.000 C 353.600 21.780,353.347 21.600,353.038 21.600 C 352.553 21.600,351.280 21.048,348.305 19.550 C 347.923 19.357,347.338 19.200,347.005 19.200 C 346.672 19.200,346.400 19.020,346.400 18.800 C 346.400 18.580,346.051 18.400,345.624 18.400 C 345.197 18.400,344.736 18.220,344.600 18.000 C 344.464 17.780,343.924 17.600,343.400 17.600 C 342.876 17.600,342.348 17.440,342.227 17.244 C 342.009 16.891,340.560 16.566,337.300 16.141 C 336.365 16.019,335.600 15.758,335.600 15.560 C 335.600 15.362,334.340 15.200,332.800 15.200 C 331.200 15.200,330.000 15.029,330.000 14.800 C 330.000 14.551,327.741 14.400,324.024 14.400 C 320.471 14.400,317.947 14.562,317.800 14.800 M329.324 33.452 C 332.128 33.836,332.864 34.801,333.793 39.313 C 334.083 40.723,335.083 41.579,337.272 42.292 C 338.222 42.601,339.763 43.202,340.696 43.627 C 343.021 44.687,344.559 44.598,346.528 43.288 C 350.810 40.439,351.662 40.655,356.868 45.911 C 360.777 49.857,361.185 51.778,358.690 54.497 C 356.826 56.528,356.837 57.221,358.800 61.352 C 359.680 63.204,360.400 64.905,360.400 65.131 C 360.400 65.949,362.414 67.099,364.286 67.348 C 367.596 67.790,368.634 68.717,369.153 71.698 C 370.321 78.406,369.160 82.792,366.049 83.423 C 362.914 84.060,362.121 84.431,361.624 85.495 C 361.339 86.103,360.948 86.913,360.753 87.295 C 360.559 87.677,360.400 88.180,360.400 88.414 C 360.400 88.648,360.040 89.584,359.600 90.494 C 358.465 92.844,358.575 94.529,360.000 96.600 C 361.790 99.201,361.663 100.954,359.504 103.444 C 353.820 110.000,351.306 110.886,347.820 107.562 C 347.072 106.849,344.539 107.220,342.190 108.387 C 340.875 109.041,339.530 109.586,339.200 109.600 C 337.712 109.663,336.000 112.352,336.000 114.625 C 336.000 117.567,333.330 118.800,326.960 118.800 C 322.280 118.800,320.000 117.372,320.000 114.439 C 320.000 112.443,318.796 110.789,316.800 110.043 C 314.749 109.276,314.014 108.974,311.854 108.016 C 309.671 107.047,308.607 107.298,306.229 109.341 C 303.522 111.668,301.625 111.139,297.175 106.819 C 292.915 102.682,292.549 101.284,294.800 97.736 C 296.325 95.331,296.315 93.956,294.749 90.756 C 294.062 89.350,293.199 87.573,292.833 86.806 C 292.222 85.526,291.925 85.355,289.214 84.725 C 284.701 83.677,284.028 82.533,284.010 75.887 C 283.995 70.685,285.404 68.400,288.627 68.400 C 290.534 68.400,292.800 66.290,292.800 64.515 C 292.800 64.226,292.980 63.632,293.200 63.195 C 293.420 62.758,293.777 62.048,293.992 61.617 C 295.109 59.391,294.960 57.670,293.452 55.399 C 291.237 52.064,291.716 50.728,297.035 45.410 C 300.226 42.218,301.963 41.911,305.000 44.000 C 307.152 45.480,307.450 45.482,310.525 44.035 C 311.886 43.395,313.653 42.647,314.451 42.373 C 315.929 41.866,317.198 40.281,317.202 38.938 C 317.216 34.345,321.545 32.385,329.324 33.452 M322.200 58.501 C 307.195 63.707,303.919 80.518,315.964 90.500 C 316.429 90.885,316.914 91.200,317.043 91.200 C 317.171 91.200,317.754 91.526,318.338 91.925 C 320.884 93.665,329.472 94.540,332.085 93.326 C 335.963 91.526,337.185 90.762,339.002 89.003 C 344.241 83.933,346.574 72.440,343.074 68.941 C 342.923 68.790,342.800 68.337,342.800 67.933 C 342.800 67.530,342.620 67.200,342.400 67.200 C 342.180 67.200,342.000 67.005,342.000 66.767 C 342.000 65.116,336.165 60.214,333.000 59.207 C 332.120 58.927,330.987 58.541,330.481 58.349 C 329.246 57.880,323.696 57.982,322.200 58.501 M50.600 240.683 C 47.300 241.390,44.940 243.854,43.633 247.960 C 43.036 249.834,43.031 323.545,43.628 325.800 C 44.555 329.304,45.929 331.125,48.800 332.654 C 50.689 333.661,129.924 333.543,132.400 332.530 C 134.429 331.700,135.971 330.095,137.052 327.689 L 138.000 325.577 137.994 287.089 C 137.987 245.133,138.078 246.835,135.691 243.991 C 132.883 240.647,136.093 240.886,91.200 240.688 C 69.310 240.591,51.040 240.589,50.600 240.683 " stroke="none" fill="#f0764b" fill-rule="evenodd"></path><path id="path1" d="M51.705 69.487 C 52.314 69.579,53.214 69.577,53.705 69.482 C 54.197 69.387,53.700 69.311,52.600 69.314 C 51.500 69.317,51.097 69.395,51.705 69.487 M81.705 69.487 C 82.314 69.579,83.214 69.577,83.705 69.482 C 84.197 69.387,83.700 69.311,82.600 69.314 C 81.500 69.317,81.097 69.395,81.705 69.487 M111.705 69.487 C 112.314 69.579,113.214 69.577,113.705 69.482 C 114.197 69.387,113.700 69.311,112.600 69.314 C 111.500 69.317,111.097 69.395,111.705 69.487 M42.901 79.000 C 42.905 79.880,42.987 80.193,43.083 79.695 C 43.179 79.198,43.175 78.478,43.075 78.095 C 42.975 77.713,42.896 78.120,42.901 79.000 M178.901 79.000 C 178.905 79.880,178.987 80.193,179.083 79.695 C 179.179 79.198,179.175 78.478,179.075 78.095 C 178.975 77.713,178.896 78.120,178.901 79.000 M49.206 128.852 C 47.308 129.241,43.790 131.777,42.502 133.684 C 40.066 137.293,40.200 134.872,40.200 175.400 L 40.200 212.600 41.243 214.800 C 42.498 217.445,45.065 220.059,47.566 221.238 L 49.400 222.103 180.912 222.027 C 275.706 221.972,312.783 221.827,313.712 221.508 C 316.912 220.410,319.832 217.745,321.280 214.600 L 322.200 212.600 322.317 177.832 C 322.445 139.512,322.540 141.566,320.698 142.778 C 313.458 147.538,300.605 151.187,298.498 149.080 L 297.457 148.038 298.788 145.919 C 300.015 143.967,301.158 141.838,302.084 139.775 C 303.751 136.065,302.409 132.938,298.400 131.192 C 297.190 130.665,295.741 129.924,295.180 129.546 C 294.138 128.845,52.573 128.163,49.206 128.852 M211.805 146.585 C 220.420 148.828,228.052 155.841,230.460 163.726 C 231.961 168.641,232.107 169.621,232.107 174.800 C 232.107 196.107,213.772 209.096,193.441 202.193 C 175.811 196.208,169.630 171.962,181.613 155.800 C 187.689 147.606,200.598 143.666,211.805 146.585 M274.800 146.561 C 280.520 147.929,286.545 151.269,287.751 153.738 C 289.831 157.997,284.573 161.897,280.301 159.265 C 266.417 150.709,249.759 157.192,248.094 171.800 C 246.255 187.937,260.121 198.370,275.759 192.615 C 277.276 192.057,278.581 191.600,278.659 191.600 C 278.736 191.600,278.800 189.002,278.800 185.827 L 278.800 180.054 272.155 179.927 L 265.511 179.800 264.355 178.415 C 262.838 176.597,262.785 174.420,264.211 172.551 C 265.722 170.570,267.128 170.326,276.200 170.471 C 288.669 170.672,288.400 170.363,288.400 184.464 C 288.400 193.686,288.340 194.537,287.572 196.170 C 286.879 197.644,284.315 200.000,283.404 200.000 C 283.287 200.000,282.428 200.339,281.496 200.753 C 278.412 202.121,277.047 202.501,271.280 203.597 C 265.402 204.714,258.124 203.545,252.055 200.510 C 231.479 190.218,233.904 153.905,255.600 147.444 C 256.150 147.280,257.230 146.960,258.000 146.732 C 261.991 145.553,270.238 145.469,274.800 146.561 M141.585 146.592 C 144.556 148.129,144.400 146.773,144.400 171.054 L 144.400 192.800 156.100 192.802 C 171.133 192.805,172.955 193.356,172.953 197.902 C 172.951 203.001,172.256 203.200,154.469 203.200 C 137.181 203.200,137.064 203.177,134.900 199.305 C 134.049 197.782,134.187 149.681,135.047 148.455 C 136.592 146.248,139.382 145.453,141.585 146.592 M112.600 147.602 C 123.224 151.684,126.639 164.042,119.266 171.728 L 117.800 173.256 118.800 174.044 C 124.392 178.450,125.669 180.588,125.921 185.968 C 126.281 193.629,122.298 199.398,115.000 201.790 C 110.362 203.309,86.583 203.936,84.012 202.606 C 81.046 201.073,81.200 202.598,81.200 174.729 L 81.200 149.782 82.407 148.318 C 83.988 146.400,83.497 146.455,97.800 146.576 C 109.653 146.676,110.306 146.721,112.600 147.602 M197.993 156.142 C 182.902 161.053,180.969 184.919,195.073 192.187 C 210.058 199.910,225.731 186.170,221.568 168.960 C 219.152 158.975,207.969 152.895,197.993 156.142 M91.398 156.462 C 91.277 156.776,91.228 159.816,91.289 163.217 L 91.400 169.400 98.000 169.522 C 107.577 169.698,110.887 168.801,112.499 165.592 C 114.155 162.296,112.903 158.926,109.397 157.240 C 106.879 156.029,91.813 155.378,91.398 156.462 M91.500 179.431 C 91.144 179.790,91.092 192.052,91.443 192.967 C 91.950 194.290,108.641 193.668,112.140 192.196 C 117.426 189.972,117.372 182.943,112.049 180.334 C 110.147 179.401,92.309 178.618,91.500 179.431 " stroke="none" fill="#60b6fb" fill-rule="evenodd"></path><path id="path2" d="M35.600 51.600 C 35.600 51.820,34.981 52.000,34.224 52.000 C 33.467 52.000,32.736 52.180,32.600 52.400 C 32.464 52.620,32.003 52.800,31.576 52.800 C 31.149 52.800,30.800 52.980,30.800 53.200 C 30.800 53.420,30.440 53.600,30.000 53.600 C 29.560 53.600,29.200 53.780,29.200 54.000 C 29.200 54.220,28.840 54.400,28.400 54.400 C 27.960 54.400,27.600 54.580,27.600 54.800 C 27.600 55.020,27.346 55.200,27.036 55.200 C 26.725 55.200,26.017 55.740,25.461 56.400 C 24.906 57.060,24.295 57.600,24.104 57.600 C 23.686 57.600,20.800 60.196,20.800 60.572 C 20.800 60.717,20.364 61.272,19.831 61.805 C 19.298 62.338,18.746 63.140,18.604 63.587 C 18.462 64.034,18.178 64.400,17.973 64.400 C 17.768 64.400,17.600 64.760,17.600 65.200 C 17.600 65.640,17.420 66.000,17.200 66.000 C 16.980 66.000,16.800 66.360,16.800 66.800 C 16.800 67.240,16.620 67.600,16.400 67.600 C 16.180 67.600,16.000 68.140,16.000 68.800 C 16.000 69.460,15.820 70.000,15.600 70.000 C 15.380 70.000,15.200 70.900,15.200 72.000 C 15.200 73.100,15.020 74.000,14.800 74.000 C 13.982 74.000,14.282 106.396,15.100 106.422 C 19.458 106.562,271.029 106.305,271.173 106.160 C 271.281 106.052,271.120 105.567,270.815 105.082 C 269.555 103.079,267.200 97.869,267.200 97.084 C 267.200 96.796,267.051 96.389,266.870 96.180 C 266.688 95.971,266.316 94.990,266.042 94.000 C 265.769 93.010,265.378 91.647,265.173 90.972 C 264.968 90.296,264.799 89.486,264.798 89.172 C 264.797 88.857,264.608 87.925,264.379 87.100 L 263.962 85.600 224.168 85.600 C 189.619 85.600,184.184 85.521,182.932 84.997 C 178.126 82.989,177.564 76.356,181.948 73.377 L 183.386 72.400 223.266 72.400 C 260.905 72.400,263.157 72.361,263.344 71.700 C 263.453 71.315,263.658 70.010,263.799 68.800 C 264.431 63.391,266.092 56.961,267.647 53.905 C 267.841 53.523,268.000 52.758,268.000 52.205 L 268.000 51.200 151.800 51.200 C 74.600 51.200,35.600 51.334,35.600 51.600 M57.089 70.151 C 66.093 74.876,62.924 88.448,52.795 88.541 C 41.635 88.643,39.255 73.022,49.906 69.573 C 51.400 69.090,55.730 69.438,57.089 70.151 M87.555 70.572 C 96.180 76.017,92.716 88.562,82.600 88.513 C 71.858 88.461,69.350 73.528,79.451 69.762 C 81.714 68.918,85.542 69.301,87.555 70.572 M115.831 69.787 C 122.458 71.755,124.584 81.395,119.396 85.950 C 112.746 91.788,103.150 87.630,103.150 78.911 C 103.150 72.075,109.106 67.790,115.831 69.787 M302.901 135.800 C 302.905 136.680,302.987 136.993,303.083 136.495 C 303.179 135.998,303.175 135.278,303.075 134.895 C 302.975 134.513,302.896 134.920,302.901 135.800 M355.000 194.400 C 354.864 194.620,354.133 194.800,353.376 194.800 C 352.619 194.800,352.000 194.980,352.000 195.200 C 352.000 195.420,351.668 195.600,351.261 195.600 C 350.088 195.600,348.064 196.767,347.801 197.595 C 347.669 198.012,346.680 198.986,345.603 199.759 C 343.041 201.600,335.200 212.452,335.200 214.157 C 335.200 214.342,339.541 217.200,339.822 217.200 C 339.951 217.200,340.841 217.740,341.800 218.400 C 342.759 219.060,343.659 219.600,343.800 219.600 C 343.941 219.600,344.808 220.115,345.728 220.743 C 346.648 221.372,349.740 223.294,352.600 225.013 C 355.460 226.732,360.140 229.571,363.000 231.321 C 365.860 233.071,368.830 234.860,369.600 235.298 C 370.370 235.736,371.478 236.433,372.062 236.847 C 372.646 237.261,373.276 237.600,373.462 237.600 C 373.648 237.601,374.323 238.051,374.962 238.600 C 376.301 239.752,376.800 239.856,376.800 238.983 C 376.800 238.644,377.160 237.980,377.600 237.508 C 378.040 237.036,378.400 236.413,378.400 236.125 C 378.400 235.836,378.580 235.600,378.800 235.600 C 379.020 235.600,379.200 235.240,379.200 234.800 C 379.200 234.360,379.380 234.000,379.600 234.000 C 379.820 234.000,380.000 233.764,380.000 233.475 C 380.000 233.187,380.360 232.564,380.800 232.092 C 381.240 231.620,381.600 230.956,381.600 230.617 C 381.600 230.278,381.780 230.000,382.000 230.000 C 382.220 230.000,382.400 229.640,382.400 229.200 C 382.400 228.760,382.580 228.400,382.800 228.400 C 383.020 228.400,383.200 227.860,383.200 227.200 C 383.200 226.540,383.380 226.000,383.600 226.000 C 383.820 226.000,384.000 225.280,384.000 224.400 C 384.000 223.520,384.180 222.800,384.400 222.800 C 384.641 222.800,384.800 221.133,384.800 218.600 C 384.800 216.067,384.641 214.400,384.400 214.400 C 384.180 214.400,384.000 213.768,384.000 212.995 C 384.000 212.222,383.841 211.277,383.647 210.895 C 383.452 210.513,383.092 209.705,382.847 209.100 C 381.948 206.888,381.457 206.000,381.132 206.000 C 380.950 206.000,380.800 205.680,380.800 205.288 C 380.800 204.897,380.440 204.317,380.000 204.000 C 379.560 203.683,379.200 203.211,379.200 202.952 C 379.200 202.400,376.490 199.600,375.956 199.600 C 375.756 199.600,375.073 199.103,374.438 198.496 C 373.033 197.154,370.203 195.600,369.162 195.600 C 368.743 195.600,368.400 195.420,368.400 195.200 C 368.400 194.980,367.781 194.800,367.024 194.800 C 366.267 194.800,365.536 194.620,365.400 194.400 C 365.257 194.168,363.070 194.000,360.200 194.000 C 357.330 194.000,355.143 194.168,355.000 194.400 M326.911 228.077 C 326.474 228.805,325.166 230.930,324.004 232.800 C 322.842 234.670,320.860 237.910,319.599 240.000 C 318.339 242.090,316.087 245.780,314.594 248.200 C 309.088 257.128,305.479 263.033,304.771 264.273 C 304.371 264.973,303.424 266.503,302.667 267.673 C 301.909 268.843,298.998 273.580,296.198 278.200 C 293.397 282.820,290.487 287.557,289.731 288.727 C 288.975 289.897,288.030 291.427,287.631 292.127 C 287.233 292.827,285.961 294.930,284.805 296.800 C 281.896 301.506,278.493 307.053,277.198 309.200 C 276.601 310.190,275.103 312.620,273.868 314.600 L 271.623 318.200 272.512 318.944 C 273.372 319.665,287.519 328.344,289.658 329.463 C 290.240 329.768,290.937 330.283,291.207 330.608 C 291.477 330.934,291.843 331.200,292.021 331.200 C 292.198 331.200,293.427 331.920,294.752 332.800 C 296.077 333.680,297.263 334.400,297.387 334.400 C 297.511 334.400,298.555 335.007,299.706 335.750 C 310.318 342.591,311.876 343.324,312.776 341.900 C 314.547 339.099,317.413 334.411,318.096 333.200 C 318.530 332.430,319.027 331.620,319.200 331.400 C 319.372 331.180,321.041 328.480,322.907 325.400 C 324.773 322.320,327.248 318.270,328.406 316.400 C 329.565 314.530,331.002 312.190,331.600 311.200 C 332.198 310.210,333.636 307.870,334.797 306.000 C 335.957 304.130,337.220 302.060,337.603 301.400 C 338.394 300.035,344.300 290.369,346.095 287.500 C 346.833 286.320,347.571 285.600,348.042 285.600 C 348.502 285.600,348.800 285.320,348.800 284.888 C 348.800 284.497,349.160 283.917,349.600 283.600 C 350.040 283.283,350.400 282.703,350.400 282.312 C 350.400 281.920,350.580 281.600,350.800 281.600 C 351.020 281.600,351.200 281.322,351.200 280.983 C 351.200 280.644,351.560 279.980,352.000 279.508 C 352.440 279.036,352.800 278.413,352.800 278.125 C 352.800 277.836,352.958 277.600,353.151 277.600 C 353.345 277.600,353.727 277.060,354.000 276.400 C 354.273 275.740,354.655 275.200,354.849 275.200 C 355.042 275.200,355.200 275.007,355.200 274.772 C 355.200 274.537,355.702 273.592,356.316 272.672 C 356.930 271.752,357.785 270.237,358.216 269.305 C 358.647 268.372,359.135 267.607,359.300 267.605 C 359.465 267.602,359.600 267.280,359.600 266.888 C 359.600 266.497,359.960 265.917,360.400 265.600 C 360.840 265.283,361.200 264.703,361.200 264.312 C 361.200 263.920,361.380 263.600,361.600 263.600 C 361.820 263.600,362.000 263.319,362.000 262.976 C 362.000 262.607,362.188 262.469,362.462 262.638 C 362.736 262.807,362.815 262.749,362.658 262.494 C 362.512 262.258,362.664 261.793,362.996 261.461 C 363.328 261.129,363.600 260.614,363.600 260.317 C 363.600 260.020,363.960 259.517,364.400 259.200 C 364.840 258.883,365.200 258.303,365.200 257.912 C 365.200 257.520,365.380 257.200,365.600 257.200 C 365.820 257.200,366.000 256.970,366.000 256.688 C 366.000 256.407,366.360 255.917,366.800 255.600 C 367.240 255.283,367.600 254.703,367.600 254.312 C 367.600 253.920,367.735 253.599,367.900 253.597 C 368.206 253.594,369.200 251.700,369.200 251.120 C 369.200 250.944,368.917 250.800,368.572 250.800 C 368.227 250.800,367.159 250.260,366.200 249.600 C 365.241 248.940,364.336 248.400,364.190 248.400 C 364.043 248.400,363.446 248.061,362.862 247.647 C 362.278 247.233,361.170 246.534,360.400 246.095 C 359.630 245.656,357.031 244.085,354.625 242.603 C 352.219 241.121,349.339 239.414,348.225 238.809 C 344.857 236.978,343.021 235.931,342.600 235.600 C 342.380 235.427,341.570 234.929,340.800 234.494 C 340.030 234.059,336.976 232.219,334.013 230.405 C 327.358 226.332,327.861 226.497,326.911 228.077 M271.200 352.938 C 271.200 364.694,270.813 364.430,280.719 359.424 C 289.888 354.790,289.443 355.266,286.486 353.258 C 285.143 352.346,283.927 351.600,283.784 351.600 C 283.641 351.600,283.046 351.261,282.462 350.847 C 281.878 350.433,280.770 349.737,280.000 349.300 C 279.230 348.864,277.102 347.583,275.271 346.453 C 273.439 345.324,271.774 344.400,271.571 344.400 C 271.355 344.400,271.200 347.964,271.200 352.938 " stroke="none" fill="#496e78" fill-rule="evenodd"></path><path id="path3" d="M322.261 34.147 C 319.215 34.651,318.000 35.634,318.000 37.595 C 318.000 40.729,316.971 41.820,312.000 43.961 C 307.476 45.910,307.175 45.928,304.600 44.400 C 301.078 42.311,299.814 42.783,295.410 47.833 C 292.362 51.327,292.165 52.323,293.957 55.165 C 295.715 57.952,295.744 58.379,294.410 61.712 C 293.744 63.374,293.200 65.005,293.200 65.338 C 293.200 66.446,290.600 68.798,289.353 68.819 C 285.494 68.884,284.196 71.199,284.550 77.389 C 284.862 82.859,285.410 83.481,290.889 84.589 C 292.497 84.915,293.216 85.907,295.113 90.415 C 296.990 94.876,296.991 95.127,295.157 98.035 C 293.066 101.351,293.371 102.398,297.621 106.500 C 301.883 110.613,303.360 111.029,306.009 108.861 C 308.984 106.426,309.441 106.370,313.000 108.000 C 314.441 108.660,315.888 109.200,316.215 109.200 C 318.108 109.200,320.400 111.728,320.400 113.814 C 320.400 117.156,322.141 118.146,327.921 118.091 C 333.866 118.034,334.776 117.567,335.532 114.182 C 336.261 110.917,336.705 110.133,338.153 109.556 C 338.839 109.283,340.550 108.541,341.957 107.908 C 345.486 106.319,346.350 106.217,348.000 107.189 C 352.199 109.665,352.908 109.555,356.589 105.851 C 361.148 101.263,361.605 99.915,359.594 96.991 C 357.934 94.579,357.751 93.302,358.752 91.106 C 359.207 90.108,359.872 88.415,360.230 87.345 C 361.147 84.605,362.066 83.774,364.872 83.151 C 368.636 82.316,368.887 81.803,368.729 75.270 L 368.600 69.922 367.400 68.963 C 366.670 68.379,365.652 67.996,364.800 67.983 C 363.211 67.959,360.829 66.896,360.355 66.000 C 356.799 59.274,356.329 57.029,357.977 54.633 C 360.474 51.004,360.187 49.742,355.922 45.596 C 351.620 41.414,350.526 41.190,346.812 43.735 C 344.487 45.327,343.429 45.285,338.701 43.411 C 334.200 41.627,333.813 41.290,333.176 38.595 C 332.050 33.829,329.782 32.905,322.261 34.147 M332.434 58.440 C 343.111 61.934,348.200 74.274,343.118 84.346 C 334.377 101.670,308.406 95.423,308.401 75.994 C 308.398 63.292,320.423 54.509,332.434 58.440 M48.400 70.443 C 39.664 75.688,42.713 88.429,52.696 88.391 C 59.185 88.366,64.006 81.921,61.870 76.126 C 59.828 70.589,52.974 67.698,48.400 70.443 M77.978 70.744 C 74.947 72.693,73.638 74.662,73.322 77.749 C 72.054 90.130,90.223 92.541,92.127 80.244 C 93.306 72.632,84.371 66.633,77.978 70.744 M107.950 70.746 C 99.593 76.046,102.923 88.428,112.696 88.391 C 120.607 88.361,125.054 79.381,120.263 73.113 C 117.503 69.501,111.678 68.381,107.950 70.746 M183.800 72.686 C 178.535 73.972,177.682 82.053,182.532 84.706 C 184.664 85.872,263.869 85.769,263.650 84.600 C 263.567 84.160,263.387 81.280,263.250 78.200 L 263.000 72.600 223.800 72.545 C 202.240 72.515,184.240 72.579,183.800 72.686 M22.900 106.700 L 14.400 106.816 14.400 234.808 C 14.400 319.869,14.534 362.800,14.800 362.800 C 15.020 362.800,15.200 363.509,15.200 364.376 C 15.200 365.243,15.380 366.064,15.600 366.200 C 15.820 366.336,16.000 366.887,16.000 367.424 C 16.000 367.961,16.180 368.400,16.400 368.400 C 16.620 368.400,16.800 368.850,16.800 369.400 C 16.800 369.950,16.946 370.400,17.125 370.400 C 17.304 370.400,17.698 371.030,18.000 371.800 C 18.302 372.570,18.696 373.200,18.875 373.200 C 19.054 373.200,19.200 373.383,19.200 373.606 C 19.200 374.135,25.865 380.800,26.394 380.800 C 26.617 380.800,26.800 380.980,26.800 381.200 C 26.800 381.420,27.160 381.600,27.600 381.600 C 28.040 381.600,28.400 381.780,28.400 382.000 C 28.400 382.220,28.760 382.400,29.200 382.400 C 29.640 382.400,30.000 382.580,30.000 382.800 C 30.000 383.020,30.360 383.200,30.800 383.200 C 31.240 383.200,31.600 383.380,31.600 383.600 C 31.600 383.820,32.140 384.000,32.800 384.000 C 33.460 384.000,34.000 384.180,34.000 384.400 C 34.000 384.620,34.900 384.800,36.000 384.800 C 37.100 384.800,38.000 384.980,38.000 385.200 C 38.000 385.755,324.257 385.755,324.600 385.200 C 324.736 384.980,325.647 384.800,326.624 384.800 C 327.601 384.800,328.400 384.620,328.400 384.400 C 328.400 384.180,328.940 384.000,329.600 384.000 C 330.260 384.000,330.800 383.820,330.800 383.600 C 330.800 383.380,331.143 383.200,331.562 383.200 C 332.469 383.200,335.600 381.592,335.600 381.126 C 335.600 380.947,335.971 380.800,336.424 380.800 C 336.877 380.800,337.136 380.620,337.000 380.400 C 336.864 380.180,336.955 380.000,337.202 380.000 C 337.666 380.000,340.484 377.173,342.600 374.586 C 343.260 373.780,344.025 372.880,344.300 372.588 C 344.575 372.296,344.800 371.774,344.800 371.429 C 344.800 371.083,344.980 370.800,345.200 370.800 C 345.420 370.800,345.600 370.440,345.600 370.000 C 345.600 369.560,345.780 369.200,346.000 369.200 C 346.220 369.200,346.400 368.660,346.400 368.000 C 346.400 367.340,346.580 366.800,346.800 366.800 C 347.020 366.800,347.200 366.080,347.200 365.200 C 347.200 364.320,347.380 363.600,347.600 363.600 C 347.864 363.600,348.000 350.389,348.000 324.767 C 348.000 296.279,347.881 285.973,347.552 286.083 C 347.164 286.212,342.256 293.859,339.902 298.000 C 339.464 298.770,338.788 299.850,338.400 300.400 C 338.012 300.950,337.335 302.030,336.896 302.800 C 336.458 303.570,334.335 307.080,332.180 310.600 C 330.024 314.120,327.546 318.170,326.672 319.600 C 325.799 321.030,324.571 322.952,323.942 323.872 C 323.314 324.792,322.800 325.659,322.800 325.800 C 322.800 325.941,322.260 326.841,321.600 327.800 C 320.940 328.759,320.400 329.659,320.400 329.800 C 320.400 329.941,319.882 330.808,319.250 331.728 C 318.617 332.648,317.672 334.134,317.150 335.032 C 316.627 335.930,315.335 338.094,314.278 339.841 L 312.355 343.018 306.678 345.923 C 295.066 351.865,289.585 354.756,288.508 355.507 C 285.913 357.317,273.534 363.233,272.818 363.006 C 271.041 362.442,271.057 362.662,271.154 340.086 L 271.247 318.622 275.274 312.011 C 277.488 308.375,279.997 304.275,280.850 302.900 C 281.702 301.525,283.120 299.230,284.000 297.800 C 284.880 296.370,286.297 294.075,287.149 292.700 C 289.711 288.564,295.253 279.483,295.997 278.200 C 296.380 277.540,297.643 275.470,298.803 273.600 C 299.964 271.730,301.402 269.390,302.001 268.400 C 302.599 267.410,304.311 264.620,305.805 262.200 C 307.299 259.780,309.008 256.990,309.604 256.000 C 310.200 255.010,311.640 252.670,312.804 250.800 C 313.968 248.930,315.118 247.040,315.360 246.600 C 315.603 246.160,317.080 243.730,318.643 241.200 C 320.207 238.670,322.890 234.312,324.606 231.515 C 326.322 228.719,327.833 226.489,327.963 226.560 C 328.093 226.632,331.890 228.910,336.400 231.624 C 340.910 234.337,345.770 237.212,347.200 238.011 C 351.599 240.471,352.984 241.273,353.400 241.600 C 353.620 241.773,354.430 242.271,355.200 242.706 C 355.970 243.141,359.030 244.990,362.000 246.814 C 369.494 251.416,369.301 251.325,369.756 250.489 C 369.963 250.110,370.237 249.710,370.366 249.600 C 370.495 249.490,370.825 248.995,371.100 248.500 C 372.355 246.240,372.632 245.797,373.100 245.287 C 373.375 244.988,373.600 244.584,373.600 244.389 C 373.600 244.194,374.140 243.119,374.800 242.000 C 376.389 239.305,376.465 239.439,371.866 236.830 C 371.170 236.435,366.820 233.815,362.200 231.007 C 357.580 228.199,353.170 225.545,352.400 225.109 C 351.630 224.672,350.820 224.173,350.600 224.000 C 350.380 223.827,349.570 223.329,348.800 222.894 C 348.030 222.458,345.150 220.711,342.400 219.011 C 339.650 217.311,336.888 215.654,336.261 215.330 C 334.808 214.576,334.883 214.308,338.058 208.916 C 340.410 204.923,343.593 201.172,346.900 198.495 L 348.000 197.605 348.000 165.003 C 348.000 138.147,347.906 132.400,347.468 132.400 C 347.176 132.400,345.691 132.827,344.168 133.348 C 339.570 134.923,336.377 135.692,331.273 136.455 C 328.049 136.937,327.863 137.026,325.313 139.277 C 323.866 140.554,322.573 141.600,322.441 141.600 C 322.308 141.600,322.200 157.485,322.200 176.900 C 322.200 210.566,322.165 212.291,321.443 214.161 C 320.210 217.360,317.049 220.363,313.712 221.508 C 312.783 221.827,275.706 221.972,180.912 222.027 L 49.400 222.103 47.566 221.238 C 45.065 220.059,42.498 217.445,41.243 214.800 L 40.200 212.600 40.200 175.200 L 40.200 137.800 41.171 135.842 C 42.387 133.392,44.428 131.255,46.941 129.799 L 48.882 128.676 171.141 128.756 L 293.400 128.836 290.600 126.956 C 283.610 122.262,277.746 116.414,273.196 109.600 C 272.241 108.170,271.267 106.868,271.030 106.706 C 270.637 106.437,42.508 106.431,22.900 106.700 M198.800 145.978 C 170.780 150.157,166.686 193.110,193.441 202.193 C 213.772 209.096,232.107 196.107,232.107 174.800 C 232.107 169.621,231.961 168.641,230.460 163.726 C 226.754 151.592,212.969 143.864,198.800 145.978 M261.400 145.989 C 260.300 146.170,258.770 146.505,258.000 146.732 C 257.230 146.960,256.150 147.280,255.600 147.444 C 249.066 149.390,241.860 156.844,239.402 164.200 C 232.574 184.637,245.747 203.999,266.480 204.000 C 271.009 204.000,277.193 202.663,281.496 200.753 C 282.428 200.339,283.287 200.000,283.404 200.000 C 284.315 200.000,286.879 197.644,287.572 196.170 C 288.340 194.537,288.400 193.686,288.400 184.464 C 288.400 170.363,288.669 170.672,276.200 170.471 C 267.128 170.326,265.722 170.570,264.211 172.551 C 262.785 174.420,262.838 176.597,264.355 178.415 L 265.511 179.800 272.155 179.927 L 278.800 180.054 278.800 185.827 C 278.800 189.002,278.736 191.600,278.659 191.600 C 278.581 191.600,277.276 192.057,275.759 192.615 C 257.200 199.445,241.576 182.507,250.136 164.838 C 254.720 155.375,269.545 152.637,280.301 159.265 C 284.573 161.897,289.831 157.997,287.751 153.738 C 285.295 148.708,270.781 144.439,261.400 145.989 M136.947 146.767 C 134.251 148.411,134.400 146.825,134.400 173.894 C 134.400 199.671,134.354 198.978,136.200 201.135 C 137.897 203.118,138.625 203.200,154.469 203.200 C 172.256 203.200,172.951 203.001,172.953 197.902 C 172.955 193.356,171.133 192.805,156.100 192.802 L 144.400 192.800 144.400 171.054 C 144.400 149.607,144.389 149.293,143.565 148.246 C 141.808 146.013,139.156 145.420,136.947 146.767 M84.507 146.663 C 84.016 146.768,83.071 147.513,82.407 148.318 L 81.200 149.782 81.200 174.729 C 81.200 202.598,81.046 201.073,84.012 202.606 C 86.583 203.936,110.362 203.309,115.000 201.790 C 122.298 199.398,126.281 193.629,125.921 185.968 C 125.669 180.588,124.392 178.450,118.800 174.044 L 117.800 173.256 119.266 171.728 C 126.639 164.042,123.224 151.684,112.600 147.602 C 110.277 146.710,87.798 145.958,84.507 146.663 M209.724 156.192 C 222.770 160.151,226.705 179.189,216.572 189.323 C 210.289 195.606,197.900 195.772,191.463 189.660 C 182.296 180.954,184.148 163.081,194.793 157.534 C 198.609 155.545,205.538 154.922,209.724 156.192 M109.397 157.240 C 112.903 158.926,114.155 162.296,112.499 165.592 C 110.887 168.801,107.577 169.698,98.000 169.522 L 91.400 169.400 91.289 163.217 C 91.228 159.816,91.277 156.776,91.398 156.462 C 91.813 155.378,106.879 156.029,109.397 157.240 M112.049 180.334 C 117.372 182.943,117.426 189.972,112.140 192.196 C 108.641 193.668,91.950 194.290,91.443 192.967 C 91.092 192.052,91.144 179.790,91.500 179.431 C 92.309 178.618,110.147 179.401,112.049 180.334 M129.449 240.176 C 133.075 240.451,136.378 242.859,137.801 246.264 C 138.704 248.425,138.704 325.575,137.801 327.736 C 136.973 329.718,134.988 331.880,133.038 332.924 L 131.400 333.800 92.800 333.924 C 43.721 334.081,45.990 334.408,43.306 326.800 C 42.595 324.786,42.578 249.308,43.287 247.228 C 44.501 243.673,47.160 241.103,50.598 240.162 C 52.106 239.749,123.996 239.762,129.449 240.176 " stroke="none" fill="#d7d7fa" fill-rule="evenodd"></path><path id="path4" d="M322.176 33.560 C 318.844 33.968,317.212 35.732,317.202 38.938 C 317.198 40.281,315.929 41.866,314.451 42.373 C 313.653 42.647,311.886 43.395,310.525 44.035 C 307.450 45.482,307.152 45.480,305.000 44.000 C 301.963 41.911,300.226 42.218,297.035 45.410 C 291.716 50.728,291.237 52.064,293.452 55.399 C 294.960 57.670,295.109 59.391,293.992 61.617 C 293.777 62.048,293.420 62.758,293.200 63.195 C 292.980 63.632,292.800 64.226,292.800 64.515 C 292.800 66.290,290.534 68.400,288.627 68.400 C 285.404 68.400,283.995 70.685,284.010 75.887 C 284.028 82.533,284.701 83.677,289.214 84.725 C 291.925 85.355,292.222 85.526,292.833 86.806 C 293.199 87.573,294.062 89.350,294.749 90.756 C 296.315 93.956,296.325 95.331,294.800 97.736 C 292.549 101.284,292.915 102.682,297.175 106.819 C 301.625 111.139,303.522 111.668,306.229 109.341 C 308.607 107.298,309.671 107.047,311.854 108.016 C 314.014 108.974,314.749 109.276,316.800 110.043 C 318.796 110.789,320.000 112.443,320.000 114.439 C 320.000 117.372,322.280 118.800,326.960 118.800 C 333.330 118.800,336.000 117.567,336.000 114.625 C 336.000 112.352,337.712 109.663,339.200 109.600 C 339.530 109.586,340.875 109.041,342.190 108.387 C 344.539 107.220,347.072 106.849,347.820 107.562 C 351.306 110.886,353.820 110.000,359.504 103.444 C 361.663 100.954,361.790 99.201,360.000 96.600 C 358.575 94.529,358.465 92.844,359.600 90.494 C 360.040 89.584,360.400 88.648,360.400 88.414 C 360.400 88.180,360.559 87.677,360.753 87.295 C 360.948 86.913,361.339 86.103,361.624 85.495 C 362.121 84.431,362.914 84.060,366.049 83.423 C 369.160 82.792,370.321 78.406,369.153 71.698 C 368.634 68.717,367.596 67.790,364.286 67.348 C 362.414 67.099,360.400 65.949,360.400 65.131 C 360.400 64.905,359.680 63.204,358.800 61.352 C 356.837 57.221,356.826 56.528,358.690 54.497 C 361.185 51.778,360.777 49.857,356.868 45.911 C 351.662 40.655,350.810 40.439,346.528 43.288 C 344.559 44.598,343.021 44.687,340.696 43.627 C 339.763 43.202,338.222 42.601,337.272 42.292 C 335.083 41.579,334.083 40.723,333.793 39.313 C 332.570 33.372,330.816 32.503,322.176 33.560 M329.932 34.132 C 331.868 34.655,332.427 35.425,333.176 38.595 C 333.813 41.290,334.200 41.627,338.701 43.411 C 343.429 45.285,344.487 45.327,346.812 43.735 C 350.526 41.190,351.620 41.414,355.922 45.596 C 360.187 49.742,360.474 51.004,357.977 54.633 C 356.329 57.029,356.799 59.274,360.355 66.000 C 360.829 66.896,363.211 67.959,364.800 67.983 C 365.652 67.996,366.670 68.379,367.400 68.963 L 368.600 69.922 368.729 75.270 C 368.887 81.803,368.636 82.316,364.872 83.151 C 362.066 83.774,361.147 84.605,360.230 87.345 C 359.872 88.415,359.207 90.108,358.752 91.106 C 357.751 93.302,357.934 94.579,359.594 96.991 C 361.605 99.915,361.148 101.263,356.589 105.851 C 352.908 109.555,352.199 109.665,348.000 107.189 C 346.350 106.217,345.486 106.319,341.957 107.908 C 340.550 108.541,338.839 109.283,338.153 109.556 C 336.705 110.133,336.261 110.917,335.532 114.182 C 334.776 117.567,333.866 118.034,327.921 118.091 C 322.141 118.146,320.400 117.156,320.400 113.814 C 320.400 111.728,318.108 109.200,316.215 109.200 C 315.888 109.200,314.441 108.660,313.000 108.000 C 309.441 106.370,308.984 106.426,306.009 108.861 C 303.360 111.029,301.883 110.613,297.621 106.500 C 293.371 102.398,293.066 101.351,295.157 98.035 C 296.991 95.127,296.990 94.876,295.113 90.415 C 293.216 85.907,292.497 84.915,290.889 84.589 C 285.410 83.481,284.862 82.859,284.550 77.389 C 284.196 71.199,285.494 68.884,289.353 68.819 C 290.600 68.798,293.200 66.446,293.200 65.338 C 293.200 65.005,293.744 63.374,294.410 61.712 C 295.744 58.379,295.715 57.952,293.957 55.165 C 292.165 52.323,292.362 51.327,295.410 47.833 C 299.814 42.783,301.078 42.311,304.600 44.400 C 307.175 45.928,307.476 45.910,312.000 43.961 C 316.971 41.820,318.000 40.729,318.000 37.595 C 318.000 34.520,324.442 32.650,329.932 34.132 M321.600 58.152 C 304.925 63.732,303.532 85.884,319.408 93.008 C 331.969 98.644,346.307 88.177,345.040 74.296 C 344.015 63.059,331.891 54.709,321.600 58.152 M330.481 58.349 C 330.987 58.541,332.120 58.927,333.000 59.207 C 336.165 60.214,342.000 65.116,342.000 66.767 C 342.000 67.005,342.180 67.200,342.400 67.200 C 342.620 67.200,342.800 67.530,342.800 67.933 C 342.800 68.337,342.923 68.790,343.074 68.941 C 346.574 72.440,344.241 83.933,339.002 89.003 C 337.185 90.762,335.963 91.526,332.085 93.326 C 329.472 94.540,320.884 93.665,318.338 91.925 C 317.754 91.526,317.171 91.200,317.043 91.200 C 316.914 91.200,316.429 90.885,315.964 90.500 C 303.919 80.518,307.195 63.707,322.200 58.501 C 323.696 57.982,329.246 57.880,330.481 58.349 M263.200 78.180 C 263.321 81.683,263.578 84.140,263.852 84.413 C 264.188 84.749,264.218 84.420,263.970 83.132 C 263.785 82.179,263.627 79.375,263.617 76.900 C 263.608 74.425,263.465 72.400,263.300 72.399 C 263.135 72.399,263.090 75.000,263.200 78.180 M271.030 106.706 C 271.267 106.868,272.241 108.170,273.196 109.600 C 276.491 114.535,281.279 119.801,285.800 123.462 C 288.732 125.837,293.570 128.963,293.862 128.671 C 294.001 128.532,293.774 128.294,293.357 128.141 C 292.478 127.818,288.334 125.071,286.870 123.841 C 281.785 119.571,280.459 118.275,277.605 114.791 C 276.619 113.586,275.714 112.510,275.595 112.400 C 275.477 112.290,274.498 110.895,273.419 109.300 C 272.341 107.705,271.266 106.403,271.029 106.406 C 270.724 106.410,270.724 106.497,271.030 106.706 M343.000 133.195 C 339.826 134.281,336.030 135.138,330.555 136.003 C 328.105 136.391,327.465 136.675,325.955 138.049 C 323.469 140.309,320.467 142.574,318.600 143.598 C 316.555 144.719,315.748 145.518,317.600 144.588 C 319.868 143.448,323.648 140.800,325.843 138.812 C 327.753 137.084,328.106 136.930,331.243 136.460 C 336.457 135.680,339.162 135.020,344.800 133.150 C 346.670 132.530,347.750 132.040,347.200 132.061 C 346.650 132.083,344.760 132.593,343.000 133.195 M311.800 146.829 C 310.920 147.252,310.650 147.486,311.200 147.349 C 312.333 147.067,314.412 146.025,313.800 146.046 C 313.580 146.053,312.680 146.406,311.800 146.829 M50.598 240.162 C 47.160 241.103,44.501 243.673,43.287 247.228 C 42.578 249.308,42.595 324.786,43.306 326.800 C 44.547 330.316,48.020 333.644,50.369 333.566 L 51.400 333.531 50.377 333.221 C 46.728 332.114,44.712 329.897,43.628 325.800 C 43.025 323.523,43.036 249.825,43.640 247.960 C 44.472 245.386,45.151 244.197,46.474 243.000 C 49.340 240.407,45.840 240.588,90.400 240.727 L 131.000 240.854 132.753 241.717 C 134.845 242.747,136.667 244.805,137.431 247.001 C 137.892 248.323,137.989 255.259,137.994 287.089 L 138.000 325.577 137.052 327.689 C 134.495 333.382,135.616 333.190,104.513 333.256 C 90.041 333.287,72.170 333.435,64.800 333.585 C 56.042 333.764,65.258 333.848,91.400 333.829 L 131.400 333.800 133.038 332.924 C 134.988 331.880,136.973 329.718,137.801 327.736 C 138.704 325.575,138.704 248.425,137.801 246.264 C 136.378 242.859,133.075 240.451,129.449 240.176 C 123.996 239.762,52.106 239.749,50.598 240.162 M271.210 331.300 L 271.219 344.200 272.910 345.034 C 273.839 345.492,277.030 347.366,280.000 349.197 C 282.970 351.028,286.030 352.895,286.800 353.345 C 288.427 354.297,288.845 354.798,288.497 355.381 C 288.359 355.611,288.512 355.585,288.837 355.323 C 289.161 355.060,291.221 353.915,293.413 352.778 C 306.058 346.221,308.765 344.821,310.334 344.027 L 312.069 343.149 310.734 342.449 C 310.000 342.064,306.970 340.253,304.000 338.424 C 301.030 336.594,297.970 334.741,297.200 334.304 C 296.430 333.868,295.026 332.991,294.080 332.356 C 293.134 331.720,292.211 331.200,292.029 331.200 C 291.847 331.200,291.477 330.934,291.207 330.608 C 290.937 330.283,290.240 329.768,289.658 329.464 C 288.185 328.695,274.041 320.094,272.716 319.162 C 272.120 318.743,271.535 318.400,271.416 318.400 C 271.297 318.400,271.204 324.205,271.210 331.300 M270.928 354.800 C 270.928 356.230,271.001 356.815,271.089 356.100 C 271.178 355.385,271.178 354.215,271.089 353.500 C 271.001 352.785,270.928 353.370,270.928 354.800 " stroke="none" fill="#f9ad96" fill-rule="evenodd"></path></g></svg>