<svg id="svg" version="1.1" xmlns="http://www.w3.org/2000/svg" xmlns:xlink="http://www.w3.org/1999/xlink" width="400" height="400" viewBox="0, 0, 400,400"><g id="svgg"><path id="path0" d="M221.833 31.018 C 221.100 31.168,220.012 31.330,219.417 31.380 C 218.821 31.429,218.333 31.560,218.333 31.670 C 218.333 31.780,217.996 31.874,217.583 31.879 C 216.415 31.892,214.000 32.395,214.000 32.626 C 214.000 32.740,213.592 32.857,213.093 32.886 C 212.595 32.915,212.135 33.094,212.072 33.284 C 212.009 33.474,211.742 33.547,211.478 33.446 C 211.215 33.345,211.000 33.444,211.000 33.667 C 211.000 33.889,210.775 33.985,210.500 33.879 C 210.225 33.774,210.000 33.828,210.000 34.000 C 210.000 34.172,209.750 34.217,209.445 34.100 C 209.072 33.956,208.970 34.014,209.132 34.277 C 209.289 34.531,209.104 34.670,208.603 34.677 C 207.883 34.687,206.170 35.661,206.853 35.672 C 207.025 35.675,206.974 35.799,206.739 35.948 C 205.786 36.553,207.826 38.245,209.250 38.033 C 209.479 37.999,209.667 38.134,209.667 38.333 C 209.667 38.533,209.854 38.662,210.083 38.620 C 210.313 38.579,211.325 38.721,212.333 38.935 C 214.216 39.336,216.384 39.691,217.417 39.767 C 217.737 39.790,218.000 39.914,218.000 40.042 C 218.000 40.170,218.379 40.233,218.841 40.182 C 219.304 40.131,219.769 40.230,219.875 40.401 C 219.981 40.572,220.277 40.632,220.534 40.533 C 220.790 40.435,221.000 40.510,221.000 40.700 C 221.000 40.893,221.293 40.952,221.667 40.833 C 222.066 40.707,222.333 40.773,222.333 41.000 C 222.333 41.227,222.601 41.293,223.000 41.167 C 223.367 41.050,223.667 41.106,223.667 41.290 C 223.667 41.474,223.929 41.636,224.250 41.650 C 225.770 41.713,226.333 41.832,226.333 42.091 C 226.333 42.246,226.490 42.276,226.681 42.158 C 226.873 42.039,227.232 42.111,227.479 42.316 C 227.727 42.521,228.406 42.750,228.988 42.823 C 229.570 42.897,230.261 43.135,230.524 43.353 C 230.786 43.570,231.000 43.625,231.000 43.474 C 231.000 43.323,231.168 43.368,231.374 43.574 C 231.580 43.780,231.955 43.869,232.207 43.772 C 232.460 43.675,232.667 43.777,232.667 44.000 C 232.667 44.229,232.892 44.318,233.184 44.206 C 233.481 44.092,233.614 44.148,233.498 44.337 C 233.386 44.518,233.543 44.667,233.847 44.667 C 234.151 44.667,234.909 44.892,235.533 45.167 C 236.156 45.442,237.229 45.900,237.917 46.185 C 238.604 46.470,240.328 47.305,241.747 48.040 C 243.166 48.775,244.463 49.293,244.629 49.190 C 244.794 49.088,245.016 49.228,245.121 49.502 C 245.226 49.776,245.524 50.000,245.782 50.000 C 246.040 50.000,246.438 50.225,246.667 50.500 C 246.895 50.775,247.363 51.000,247.707 51.000 C 248.052 51.000,248.333 51.175,248.333 51.389 C 248.333 51.603,248.427 51.684,248.541 51.570 C 248.656 51.455,248.993 51.649,249.291 52.000 C 249.589 52.351,250.036 52.682,250.284 52.736 C 250.532 52.789,251.168 53.256,251.697 53.772 C 252.226 54.288,252.801 54.623,252.973 54.517 C 253.146 54.410,253.396 54.498,253.528 54.713 C 253.691 54.976,253.618 55.016,253.302 54.836 C 252.773 54.534,253.003 54.761,254.490 56.005 C 255.245 56.637,255.366 56.675,254.999 56.167 C 254.734 55.800,255.786 56.850,257.337 58.500 C 258.888 60.150,260.685 62.015,261.329 62.644 C 261.973 63.273,262.463 63.910,262.417 64.061 C 262.371 64.211,262.492 64.333,262.686 64.333 C 262.880 64.333,262.956 64.468,262.855 64.632 C 262.753 64.796,262.904 65.020,263.190 65.129 C 263.475 65.239,263.616 65.480,263.501 65.664 C 263.387 65.849,263.417 66.000,263.568 66.000 C 263.719 66.000,263.990 66.278,264.171 66.617 C 265.634 69.362,266.333 70.860,266.333 71.249 C 266.333 71.510,266.499 71.604,266.718 71.468 C 266.954 71.322,267.013 71.377,266.869 71.608 C 266.741 71.816,266.820 72.327,267.045 72.743 C 267.270 73.159,267.504 73.942,267.565 74.483 C 267.626 75.024,267.786 75.549,267.921 75.650 C 268.056 75.751,268.196 76.291,268.231 76.850 C 268.267 77.409,268.386 78.309,268.495 78.850 C 268.680 79.761,268.791 83.288,268.647 83.667 C 268.613 83.758,268.544 84.358,268.495 85.000 C 268.445 85.642,268.243 86.579,268.044 87.083 C 267.846 87.587,267.748 88.000,267.828 88.000 C 267.907 88.000,267.579 88.784,267.097 89.742 C 266.616 90.701,266.222 91.669,266.222 91.895 C 266.222 92.120,266.036 92.376,265.809 92.463 C 265.582 92.550,264.909 93.330,264.313 94.196 C 263.718 95.061,263.441 95.646,263.699 95.494 C 264.018 95.306,263.994 95.422,263.624 95.859 C 263.018 96.574,261.867 98.651,261.792 99.167 C 261.765 99.350,261.707 99.575,261.663 99.667 C 260.449 102.165,261.688 108.564,263.622 109.788 C 263.965 110.005,263.307 110.869,260.955 113.287 C 258.122 116.201,258.066 116.283,260.343 114.166 C 261.724 112.883,260.136 114.533,256.814 117.833 C 253.493 121.133,251.388 123.310,252.138 122.670 C 252.887 122.031,252.379 122.668,251.008 124.087 C 248.455 126.730,247.293 127.660,249.347 125.417 C 251.336 123.243,249.297 125.306,243.334 131.500 C 240.157 134.800,235.444 139.673,232.862 142.329 C 230.280 144.985,229.296 146.110,230.677 144.829 C 232.057 143.548,230.469 145.200,227.148 148.500 C 223.826 151.800,221.684 153.982,222.388 153.349 C 224.603 151.356,223.777 152.410,221.088 155.008 C 219.670 156.379,219.030 156.900,219.667 156.167 C 221.325 154.256,220.196 155.386,213.667 162.167 C 210.490 165.467,205.778 170.340,203.195 172.996 C 200.613 175.652,199.699 176.702,201.164 175.329 C 202.629 173.956,203.154 173.558,202.331 174.444 C 201.507 175.330,199.811 176.967,198.561 178.082 L 196.289 180.108 193.561 177.469 C 188.923 172.982,186.145 170.454,187.002 171.500 C 187.465 172.065,187.135 171.853,186.244 171.014 C 184.607 169.471,184.108 168.770,185.417 169.848 C 185.829 170.189,185.192 169.544,184.000 168.416 C 182.808 167.288,181.693 166.358,181.521 166.349 C 181.349 166.340,179.174 164.271,176.687 161.750 C 171.610 156.602,167.534 152.741,168.506 154.000 C 168.860 154.458,168.516 154.240,167.742 153.516 C 166.309 152.175,165.845 151.515,166.933 152.365 C 167.263 152.623,167.150 152.474,166.683 152.034 C 161.483 147.141,160.339 146.000,160.634 146.000 C 161.018 146.000,162.750 140.624,162.750 139.430 C 162.750 139.010,162.894 138.667,163.069 138.667 C 163.245 138.667,163.324 138.479,163.244 138.250 C 163.165 138.021,163.306 137.241,163.558 136.517 C 163.811 135.793,164.068 134.425,164.130 133.475 C 164.192 132.526,164.333 131.604,164.443 131.426 C 164.798 130.851,165.098 125.963,165.092 120.833 C 165.086 116.215,164.983 114.434,164.540 111.333 C 164.449 110.692,164.306 109.492,164.223 108.667 C 164.140 107.842,163.883 106.492,163.652 105.667 C 163.421 104.842,163.246 103.904,163.262 103.583 C 163.279 103.263,163.170 103.000,163.021 103.000 C 162.872 103.000,162.750 102.657,162.750 102.237 C 162.750 101.020,161.015 95.667,160.620 95.667 C 160.423 95.667,160.348 95.442,160.454 95.167 C 160.559 94.892,160.505 94.667,160.333 94.667 C 160.162 94.667,160.117 94.417,160.234 94.112 C 160.376 93.742,160.318 93.637,160.060 93.796 C 159.808 93.952,159.743 93.855,159.873 93.517 C 159.982 93.232,159.897 93.000,159.683 93.000 C 159.469 93.000,159.387 92.850,159.500 92.667 C 159.613 92.483,159.572 92.333,159.409 92.333 C 159.245 92.333,159.111 92.132,159.111 91.886 C 159.111 91.284,157.275 87.333,156.995 87.333 C 156.873 87.333,156.570 86.717,156.322 85.965 C 156.073 85.212,155.674 84.521,155.435 84.429 C 155.196 84.337,155.000 83.973,155.000 83.621 C 155.000 83.268,154.776 82.893,154.502 82.788 C 154.228 82.683,154.081 82.471,154.176 82.318 C 154.271 82.165,154.017 81.731,153.611 81.353 C 153.206 80.976,152.994 80.667,153.141 80.667 C 153.287 80.667,153.053 80.355,152.620 79.975 C 152.187 79.594,152.056 79.399,152.327 79.542 C 152.977 79.884,151.505 78.016,150.654 77.421 C 150.294 77.168,150.000 76.760,150.000 76.513 C 150.000 75.988,147.822 73.289,147.587 73.524 C 147.500 73.611,147.219 73.425,146.964 73.111 C 146.562 72.615,146.567 72.574,147.000 72.803 C 147.275 72.948,145.591 71.165,143.259 68.842 C 140.618 66.211,138.869 64.708,138.624 64.860 C 138.369 65.017,138.319 64.959,138.482 64.696 C 138.642 64.437,138.479 64.222,138.034 64.105 C 137.648 64.005,137.333 63.800,137.333 63.650 C 137.333 63.501,136.856 63.039,136.273 62.624 C 135.690 62.209,135.340 62.074,135.495 62.325 C 135.650 62.575,135.391 62.492,134.921 62.140 C 134.450 61.788,134.127 61.436,134.202 61.358 C 134.447 61.105,132.551 60.032,132.219 60.237 C 132.042 60.347,131.994 60.279,132.113 60.086 C 132.296 59.790,131.430 59.189,131.037 59.340 C 130.966 59.368,130.816 59.265,130.704 59.112 C 130.271 58.521,129.186 57.801,129.491 58.307 C 129.648 58.568,129.051 58.227,128.163 57.549 C 127.275 56.871,126.390 56.370,126.194 56.435 C 125.999 56.500,125.640 56.354,125.396 56.110 C 125.152 55.866,124.654 55.667,124.290 55.667 C 123.925 55.667,123.717 55.521,123.827 55.343 C 123.987 55.085,123.057 54.657,122.000 54.501 C 121.908 54.487,121.516 54.299,121.127 54.083 C 120.739 53.867,120.326 53.785,120.210 53.901 C 120.095 54.016,120.000 53.936,120.000 53.722 C 120.000 53.508,119.770 53.333,119.488 53.333 C 119.207 53.333,118.644 53.117,118.238 52.853 C 117.832 52.589,117.050 52.302,116.500 52.214 C 115.950 52.126,115.462 52.024,115.417 51.986 C 115.371 51.948,115.221 51.893,115.083 51.863 C 114.946 51.834,114.484 51.616,114.057 51.379 C 113.630 51.142,113.078 51.027,112.829 51.122 C 112.580 51.218,112.321 51.129,112.253 50.926 C 112.185 50.722,111.650 50.556,111.065 50.556 C 110.479 50.556,110.000 50.450,110.000 50.322 C 110.000 50.109,108.520 49.787,106.333 49.523 C 105.875 49.468,105.242 49.314,104.928 49.180 C 104.613 49.046,104.163 49.005,103.928 49.087 C 103.692 49.170,103.133 49.102,102.685 48.936 C 100.762 48.223,87.116 48.001,84.746 48.643 C 83.241 49.051,80.875 50.862,81.187 51.367 C 81.289 51.532,81.229 51.667,81.053 51.667 C 80.877 51.667,80.562 52.379,80.354 53.250 C 79.561 56.559,78.911 55.748,96.668 73.589 L 112.836 89.833 97.333 74.500 L 81.829 59.167 97.498 74.845 C 106.116 83.469,114.189 91.478,115.439 92.645 C 116.969 94.072,117.580 94.848,117.308 95.016 C 117.085 95.154,116.995 95.506,117.108 95.800 C 117.220 96.093,117.150 96.333,116.951 96.333 C 116.752 96.333,116.665 96.626,116.759 96.984 C 116.853 97.342,116.830 97.679,116.709 97.734 C 116.488 97.833,114.895 104.129,114.891 104.917 C 114.890 105.146,114.754 105.333,114.589 105.333 C 114.424 105.333,114.384 105.633,114.500 106.000 C 114.627 106.399,114.560 106.667,114.333 106.667 C 114.107 106.667,114.040 106.934,114.167 107.333 C 114.293 107.733,114.227 108.000,114.000 108.000 C 113.773 108.000,113.707 108.267,113.833 108.667 C 113.960 109.066,113.893 109.333,113.667 109.333 C 113.440 109.333,113.373 109.601,113.500 110.000 C 113.616 110.367,113.561 110.667,113.377 110.667 C 113.192 110.667,113.044 110.929,113.047 111.250 C 113.050 111.571,112.675 113.249,112.212 114.979 C 111.750 116.710,111.447 118.247,111.539 118.396 C 111.631 118.545,111.530 118.667,111.314 118.667 C 111.086 118.667,110.995 118.946,111.097 119.333 C 111.192 119.700,111.117 120.000,110.930 120.000 C 110.742 120.000,110.667 120.300,110.763 120.667 C 110.859 121.033,110.784 121.333,110.597 121.333 C 110.409 121.333,110.334 121.633,110.430 122.000 C 110.526 122.367,110.451 122.667,110.263 122.667 C 110.076 122.667,110.001 122.967,110.097 123.333 C 110.192 123.700,110.171 124.000,110.049 124.000 C 109.927 124.000,109.551 125.237,109.213 126.750 C 108.540 129.761,108.233 130.333,107.293 130.333 C 106.948 130.333,106.667 130.469,106.667 130.635 C 106.667 130.802,106.367 130.859,106.000 130.763 C 105.633 130.667,105.333 130.736,105.333 130.915 C 105.333 131.094,104.557 131.332,103.608 131.445 C 102.660 131.557,101.797 131.780,101.692 131.940 C 101.586 132.100,100.758 132.330,99.851 132.451 C 98.945 132.573,98.103 132.833,97.981 133.031 C 97.859 133.229,97.663 133.377,97.546 133.362 C 97.429 133.346,97.296 133.344,97.250 133.357 C 97.204 133.370,96.571 133.453,95.843 133.541 C 95.114 133.629,94.422 133.856,94.305 134.045 C 94.188 134.235,93.996 134.377,93.879 134.362 C 93.762 134.346,93.629 134.346,93.583 134.361 C 93.537 134.376,93.200 134.426,92.833 134.470 C 91.138 134.678,89.667 135.053,89.667 135.277 C 89.667 135.413,89.404 135.543,89.083 135.566 C 87.730 135.664,86.203 136.001,86.025 136.242 C 85.920 136.384,85.533 136.540,85.167 136.589 C 83.061 136.871,82.492 137.023,82.390 137.330 C 82.328 137.517,82.133 137.582,81.957 137.473 C 81.781 137.365,81.457 137.412,81.235 137.578 C 81.014 137.743,80.383 137.908,79.833 137.942 C 79.283 137.977,78.783 138.155,78.722 138.338 C 78.660 138.521,78.466 138.582,78.290 138.473 C 78.115 138.365,77.768 138.444,77.520 138.650 C 77.273 138.855,76.942 138.990,76.785 138.949 C 76.239 138.807,73.667 139.394,73.667 139.661 C 73.667 139.809,73.069 139.987,72.340 140.057 L 71.012 140.183 61.090 130.175 L 51.167 120.167 61.003 129.833 L 70.840 139.500 61.002 129.667 C 44.125 112.797,35.334 104.186,35.323 104.516 C 35.318 104.691,35.158 104.568,34.969 104.243 C 34.780 103.918,34.485 103.740,34.313 103.846 C 34.141 103.952,34.000 103.872,34.000 103.667 C 34.000 103.462,33.860 103.380,33.690 103.486 C 33.519 103.591,33.295 103.540,33.191 103.373 C 32.845 102.813,28.714 103.385,28.303 104.049 C 28.187 104.237,27.959 104.415,27.796 104.445 C 27.633 104.475,27.537 104.612,27.583 104.750 C 27.629 104.887,27.479 104.962,27.250 104.917 C 27.021 104.871,26.871 105.021,26.917 105.250 C 26.962 105.479,26.887 105.629,26.750 105.583 C 26.612 105.537,26.500 105.597,26.500 105.715 C 26.500 105.833,26.200 106.261,25.833 106.667 C 24.897 107.701,24.914 125.513,25.854 127.033 C 26.078 127.396,26.239 128.301,26.495 130.644 C 26.584 131.456,26.771 132.206,26.912 132.311 C 27.052 132.415,27.209 133.025,27.261 133.667 C 27.314 134.308,27.493 134.881,27.659 134.938 C 27.826 134.996,27.880 135.258,27.779 135.522 C 27.678 135.785,27.757 136.000,27.954 136.000 C 28.151 136.000,28.226 136.225,28.121 136.500 C 28.015 136.775,28.081 137.000,28.266 137.000 C 28.452 137.000,28.532 137.278,28.443 137.617 C 28.354 137.956,28.511 138.463,28.792 138.744 C 29.072 139.024,29.218 139.337,29.117 139.439 C 29.015 139.540,29.161 139.950,29.441 140.350 C 29.721 140.750,29.861 141.309,29.752 141.593 C 29.622 141.930,29.687 142.027,29.940 141.871 C 30.192 141.715,30.257 141.811,30.127 142.149 C 30.018 142.434,30.090 142.667,30.287 142.667 C 30.485 142.667,30.550 142.916,30.433 143.221 C 30.309 143.544,30.356 143.692,30.546 143.574 C 30.726 143.464,31.046 144.024,31.259 144.819 C 31.472 145.614,31.868 146.487,32.140 146.759 C 32.412 147.031,32.550 147.339,32.445 147.444 C 32.341 147.548,32.864 148.544,33.607 149.657 C 34.350 150.770,34.780 151.591,34.563 151.482 C 34.345 151.373,34.429 151.499,34.750 151.762 C 35.071 152.025,35.333 152.464,35.333 152.738 C 35.333 153.012,35.693 153.624,36.132 154.097 C 36.571 154.571,36.849 155.040,36.751 155.138 C 36.652 155.237,36.817 155.412,37.117 155.527 C 37.417 155.642,37.586 155.861,37.493 156.012 C 37.399 156.164,37.587 156.485,37.911 156.727 C 38.235 156.969,38.543 157.372,38.597 157.623 C 38.730 158.256,40.348 160.333,40.706 160.333 C 40.868 160.333,41.000 160.549,41.000 160.814 C 41.000 161.078,41.173 161.401,41.385 161.532 C 41.639 161.689,41.678 161.622,41.500 161.333 C 41.322 161.045,41.361 160.977,41.615 161.135 C 41.827 161.266,42.003 161.551,42.007 161.770 C 42.011 161.988,42.325 162.542,42.703 163.000 C 43.082 163.458,43.279 163.608,43.142 163.333 C 43.005 163.058,43.292 163.197,43.780 163.641 C 44.784 164.556,44.962 164.959,44.083 164.331 C 43.762 164.101,45.118 165.513,47.095 167.469 C 49.185 169.536,50.846 170.928,51.063 170.794 C 51.298 170.649,51.343 170.715,51.185 170.971 C 51.024 171.230,51.188 171.445,51.633 171.561 C 52.018 171.662,52.333 171.886,52.333 172.059 C 52.333 172.231,52.507 172.266,52.718 172.135 C 52.937 172.000,53.013 172.042,52.895 172.233 C 52.781 172.418,53.384 173.069,54.236 173.680 C 55.087 174.292,55.665 174.576,55.519 174.313 C 55.374 174.049,55.625 174.243,56.078 174.744 C 56.530 175.245,56.995 175.561,57.109 175.446 C 57.224 175.332,57.412 175.484,57.527 175.784 C 57.642 176.084,57.871 176.247,58.035 176.145 C 58.199 176.044,58.333 176.128,58.333 176.333 C 58.333 176.538,58.483 176.613,58.667 176.500 C 58.850 176.387,59.000 176.478,59.000 176.703 C 59.000 176.927,59.088 177.023,59.195 176.916 C 59.302 176.809,59.639 176.935,59.945 177.197 C 60.250 177.458,60.650 177.700,60.833 177.734 C 61.017 177.768,61.443 178.053,61.780 178.368 C 62.625 179.155,66.338 181.106,66.563 180.881 C 66.664 180.781,66.953 180.905,67.206 181.159 C 67.459 181.412,68.529 181.933,69.583 182.318 C 70.637 182.702,71.800 183.163,72.167 183.341 C 72.533 183.519,73.208 183.729,73.667 183.808 C 74.125 183.886,74.537 183.980,74.583 184.017 C 74.629 184.053,74.779 184.107,74.917 184.137 C 75.054 184.166,75.516 184.384,75.943 184.621 C 76.370 184.858,76.922 184.973,77.171 184.878 C 77.420 184.782,77.679 184.871,77.747 185.074 C 77.815 185.278,78.350 185.444,78.935 185.444 C 79.521 185.444,80.000 185.582,80.000 185.750 C 80.000 185.918,80.188 185.991,80.417 185.911 C 80.646 185.832,81.398 185.963,82.088 186.203 C 82.778 186.444,83.453 186.637,83.588 186.634 C 83.723 186.630,84.583 186.739,85.500 186.877 C 86.417 187.014,87.579 187.154,88.083 187.188 C 88.587 187.222,89.037 187.284,89.083 187.326 C 89.511 187.717,101.419 187.953,104.333 187.628 C 105.708 187.475,107.321 187.315,107.917 187.273 C 108.513 187.231,109.000 187.107,109.000 186.996 C 109.000 186.886,109.450 186.826,110.000 186.864 C 110.550 186.902,111.000 186.813,111.000 186.665 C 111.000 186.517,111.283 186.470,111.629 186.560 C 111.975 186.651,112.355 186.568,112.473 186.377 C 112.591 186.186,112.893 186.108,113.144 186.204 C 113.395 186.300,114.402 186.134,115.383 185.834 C 116.364 185.534,117.537 185.215,117.990 185.125 C 118.442 185.034,119.008 184.798,119.248 184.599 C 119.487 184.401,119.778 184.333,119.894 184.450 C 120.010 184.566,120.307 184.494,120.553 184.290 C 120.799 184.085,121.000 184.030,121.000 184.167 C 121.000 184.303,121.225 184.228,121.500 184.000 C 121.775 183.772,122.000 183.696,122.000 183.831 C 122.000 183.966,122.391 183.820,122.869 183.507 C 123.556 183.057,123.818 183.024,124.119 183.351 C 124.413 183.670,124.385 183.706,124.000 183.507 C 123.725 183.366,125.263 184.935,127.417 186.993 C 129.571 189.052,131.339 190.908,131.346 191.118 C 131.353 191.328,133.265 193.458,135.596 195.852 C 137.926 198.246,138.933 199.221,137.833 198.019 L 135.833 195.833 138.083 197.990 C 139.321 199.177,140.339 200.302,140.346 200.490 C 140.353 200.679,142.265 202.792,144.596 205.185 C 146.926 207.579,147.933 208.554,146.833 207.352 L 144.833 205.167 147.083 207.324 C 148.321 208.510,149.333 209.631,149.333 209.815 C 149.333 209.998,150.254 211.077,151.379 212.213 L 153.424 214.277 152.172 215.805 C 151.483 216.646,150.750 217.339,150.543 217.345 C 150.336 217.352,149.717 217.743,149.167 218.215 C 148.617 218.687,148.392 218.956,148.667 218.813 C 148.995 218.642,148.949 218.801,148.532 219.276 C 147.834 220.072,147.484 220.237,147.880 219.583 C 148.019 219.354,147.240 219.955,146.150 220.919 C 145.059 221.883,143.955 222.858,143.696 223.086 C 143.438 223.314,142.242 224.475,141.040 225.667 C 139.838 226.858,139.131 227.458,139.468 227.000 C 139.806 226.542,139.195 227.104,138.110 228.250 C 137.026 229.396,135.994 230.339,135.819 230.345 C 135.644 230.352,135.050 230.743,134.500 231.215 C 133.950 231.687,133.725 231.956,134.000 231.813 C 134.328 231.642,134.282 231.801,133.865 232.276 C 133.167 233.072,132.817 233.237,133.213 232.583 C 133.352 232.354,132.574 232.955,131.483 233.919 C 130.392 234.883,129.288 235.858,129.030 236.086 C 128.771 236.314,127.576 237.475,126.373 238.667 C 125.171 239.858,124.464 240.458,124.802 240.000 C 125.140 239.542,124.529 240.104,123.444 241.250 C 122.359 242.396,121.328 243.339,121.152 243.345 C 120.977 243.352,120.383 243.743,119.833 244.215 C 119.283 244.687,119.058 244.956,119.333 244.813 C 119.662 244.642,119.615 244.801,119.198 245.276 C 118.849 245.674,118.423 246.000,118.251 246.000 C 117.642 246.000,112.315 250.646,108.794 254.247 C 107.673 255.395,106.623 256.339,106.461 256.345 C 106.299 256.352,105.717 256.743,105.167 257.215 C 104.617 257.687,104.392 257.956,104.667 257.813 C 104.995 257.642,104.949 257.801,104.532 258.276 C 104.182 258.674,103.756 259.000,103.584 259.000 C 102.975 259.000,97.649 263.646,94.127 267.247 C 93.006 268.395,91.956 269.339,91.794 269.345 C 91.632 269.352,91.050 269.743,90.500 270.215 C 89.950 270.687,89.725 270.956,90.000 270.813 C 90.328 270.642,90.282 270.801,89.865 271.276 C 89.516 271.674,89.089 272.000,88.918 272.000 C 88.309 272.000,82.982 276.646,79.461 280.247 C 78.339 281.395,77.289 282.339,77.127 282.345 C 76.966 282.352,76.383 282.743,75.833 283.215 C 75.283 283.687,75.058 283.956,75.333 283.813 C 75.662 283.642,75.615 283.801,75.198 284.276 C 74.849 284.674,74.393 285.000,74.185 285.000 C 73.797 285.000,69.828 288.347,68.325 289.941 C 67.863 290.432,67.071 291.102,66.565 291.431 C 66.059 291.760,65.736 292.176,65.847 292.356 C 65.959 292.536,65.884 292.642,65.681 292.592 C 65.478 292.541,64.754 293.107,64.072 293.848 C 63.391 294.589,63.058 294.890,63.333 294.517 C 63.608 294.144,63.083 294.500,62.167 295.309 C 60.065 297.164,60.067 297.162,60.667 296.829 C 60.986 296.653,60.937 296.814,60.532 297.276 C 60.182 297.674,59.727 298.000,59.519 298.000 C 59.131 298.000,55.161 301.347,53.659 302.941 C 53.196 303.432,52.404 304.102,51.898 304.431 C 51.393 304.760,51.070 305.176,51.181 305.356 C 51.292 305.536,51.217 305.642,51.014 305.592 C 50.811 305.541,50.087 306.107,49.406 306.848 C 48.724 307.589,48.392 307.890,48.667 307.517 C 48.942 307.144,48.417 307.500,47.500 308.309 C 45.398 310.164,45.400 310.162,46.000 309.829 C 46.319 309.653,46.270 309.814,45.865 310.276 C 45.516 310.674,45.057 311.000,44.847 311.000 C 43.879 311.000,37.076 317.612,37.340 318.296 C 37.368 318.367,37.247 318.517,37.071 318.629 C 36.659 318.893,34.590 323.000,34.869 323.000 C 34.986 323.000,34.915 323.201,34.712 323.446 C 34.508 323.691,34.302 324.441,34.254 325.112 C 34.206 325.783,34.061 326.332,33.931 326.333 C 33.490 326.334,33.815 335.438,34.261 335.587 C 34.487 335.662,34.586 335.861,34.482 336.028 C 34.379 336.196,34.411 336.521,34.555 336.750 C 34.698 336.979,34.823 337.317,34.832 337.500 C 34.868 338.221,36.436 341.333,36.763 341.333 C 36.955 341.333,37.014 341.431,36.895 341.550 C 36.776 341.669,37.088 342.136,37.589 342.589 C 38.090 343.041,38.312 343.310,38.083 343.186 C 37.265 342.743,37.780 343.279,46.878 352.333 C 51.944 357.375,55.965 361.275,55.814 361.000 C 55.577 360.570,55.617 360.564,56.099 360.954 C 56.407 361.204,56.577 361.542,56.477 361.704 C 56.308 361.978,56.750 362.110,57.190 361.917 C 57.295 361.871,57.529 362.099,57.711 362.424 C 57.892 362.748,58.182 362.927,58.354 362.821 C 58.526 362.714,58.667 362.786,58.667 362.980 C 58.667 363.174,58.892 363.333,59.167 363.333 C 59.442 363.333,59.667 363.456,59.667 363.605 C 59.667 363.942,62.021 365.090,62.248 364.863 C 62.338 364.773,62.642 364.928,62.923 365.208 C 63.203 365.489,63.710 365.646,64.050 365.557 C 64.389 365.468,64.667 365.549,64.667 365.737 C 64.667 365.924,64.967 365.999,65.333 365.904 C 65.699 365.808,66.074 365.850,66.165 365.998 C 66.663 366.803,76.592 366.541,77.433 365.700 C 77.606 365.527,77.937 365.458,78.168 365.546 C 78.685 365.745,81.667 364.380,81.667 363.944 C 81.667 363.770,81.816 363.720,81.999 363.833 C 82.182 363.946,82.726 363.617,83.208 363.103 C 83.689 362.588,83.880 362.467,83.631 362.833 L 83.178 363.500 83.967 362.833 C 84.402 362.467,86.096 360.667,87.734 358.833 C 89.371 357.000,91.263 354.908,91.939 354.185 C 92.696 353.374,92.840 353.118,92.315 353.518 C 91.847 353.875,92.111 353.567,92.901 352.833 C 93.692 352.100,94.338 351.336,94.336 351.135 C 94.335 350.934,94.671 350.484,95.083 350.135 C 95.828 349.504,95.830 349.505,95.333 350.181 C 95.058 350.556,95.382 350.257,96.053 349.518 C 96.725 348.778,97.210 348.069,97.131 347.943 C 97.053 347.816,97.165 347.604,97.379 347.472 C 97.645 347.307,97.682 347.380,97.494 347.698 C 97.343 347.956,97.545 347.881,97.943 347.532 C 98.747 346.827,98.889 346.510,98.250 346.848 C 98.021 346.969,98.321 346.667,98.917 346.176 C 99.513 345.686,100.000 345.094,100.000 344.861 C 100.000 344.628,100.326 344.151,100.724 343.802 C 101.201 343.383,101.360 343.337,101.190 343.667 C 101.048 343.942,101.360 343.645,101.883 343.008 C 102.406 342.370,102.833 341.745,102.833 341.619 C 102.833 341.492,102.970 341.264,103.137 341.111 C 103.316 340.947,103.331 341.037,103.173 341.333 C 102.773 342.082,103.395 341.429,107.144 337.167 C 108.918 335.150,110.924 332.910,111.601 332.188 C 112.279 331.467,112.527 331.092,112.152 331.355 C 111.777 331.618,112.042 331.308,112.740 330.667 C 113.439 330.025,114.008 329.336,114.005 329.135 C 114.002 328.934,114.338 328.484,114.750 328.135 C 115.495 327.504,115.497 327.505,115.000 328.183 C 114.725 328.559,114.842 328.484,115.259 328.016 C 115.677 327.549,116.577 326.587,117.259 325.878 C 117.942 325.170,118.275 324.697,118.000 324.829 C 117.725 324.960,117.987 324.667,118.583 324.176 C 119.179 323.686,119.667 323.094,119.667 322.861 C 119.667 322.628,119.992 322.151,120.391 321.802 C 120.868 321.383,121.027 321.337,120.857 321.667 C 120.715 321.942,121.027 321.645,121.549 321.008 C 122.072 320.370,122.500 319.745,122.500 319.619 C 122.500 319.492,122.637 319.264,122.803 319.111 C 122.980 318.950,123.006 319.008,122.867 319.250 C 122.377 320.102,122.919 319.614,124.514 317.766 C 125.417 316.720,125.933 315.996,125.661 316.156 C 125.366 316.330,125.423 316.155,125.802 315.724 C 126.501 314.926,126.843 314.767,126.461 315.417 C 126.326 315.646,126.955 315.025,127.858 314.037 C 128.761 313.049,129.625 312.027,129.779 311.765 C 129.932 311.503,130.607 310.751,131.279 310.094 C 131.950 309.436,132.193 309.108,131.819 309.365 C 131.444 309.623,131.709 309.308,132.407 308.667 C 133.106 308.025,133.675 307.336,133.672 307.135 C 133.669 306.934,134.004 306.484,134.417 306.135 C 135.162 305.504,135.163 305.505,134.667 306.183 C 134.392 306.559,134.508 306.484,134.926 306.016 C 135.344 305.549,136.244 304.587,136.926 303.878 C 137.608 303.170,137.942 302.697,137.667 302.829 C 137.392 302.960,137.654 302.667,138.250 302.176 C 138.846 301.686,139.333 301.094,139.333 300.861 C 139.333 300.628,139.659 300.151,140.057 299.802 C 140.535 299.383,140.693 299.337,140.523 299.667 C 140.382 299.942,140.693 299.645,141.216 299.008 C 141.739 298.370,142.167 297.745,142.167 297.619 C 142.167 297.492,142.303 297.264,142.470 297.111 C 142.646 296.950,142.673 297.008,142.534 297.250 C 142.043 298.102,142.585 297.614,144.181 295.766 C 145.083 294.720,145.599 293.996,145.328 294.156 C 145.033 294.330,145.090 294.155,145.468 293.724 C 146.168 292.926,146.510 292.767,146.128 293.417 C 145.838 293.909,149.061 290.412,149.396 289.870 C 149.522 289.667,150.459 288.624,151.479 287.553 C 152.499 286.482,153.333 285.418,153.333 285.188 C 153.333 284.958,153.671 284.484,154.083 284.135 C 154.828 283.504,154.830 283.505,154.333 284.183 C 154.058 284.559,154.175 284.484,154.593 284.016 C 155.010 283.549,155.910 282.575,156.593 281.851 C 157.323 281.077,157.483 280.803,156.982 281.185 C 156.514 281.541,156.777 281.233,157.568 280.500 C 158.359 279.767,159.004 279.002,159.003 278.802 C 159.001 278.601,159.326 278.151,159.724 277.802 C 160.201 277.383,160.360 277.337,160.190 277.667 C 160.048 277.942,160.360 277.645,160.883 277.008 C 161.406 276.370,161.833 275.745,161.833 275.619 C 161.833 275.492,161.970 275.264,162.137 275.111 C 162.313 274.950,162.340 275.008,162.200 275.250 C 161.710 276.102,162.252 275.614,163.847 273.766 C 164.750 272.720,165.266 271.996,164.994 272.156 C 164.700 272.330,164.757 272.155,165.135 271.724 C 165.840 270.920,166.157 270.778,165.819 271.417 C 165.698 271.646,166.027 271.312,166.549 270.674 C 167.072 270.037,167.500 269.412,167.500 269.286 C 167.500 269.159,167.637 268.931,167.803 268.778 C 167.982 268.614,168.005 268.706,167.860 269.000 C 167.724 269.275,168.015 269.050,168.508 268.500 C 169.000 267.950,170.549 266.250,171.951 264.722 C 173.353 263.194,174.625 261.722,174.779 261.450 C 174.932 261.178,175.540 260.478,176.129 259.895 C 176.719 259.311,176.885 259.058,176.499 259.333 C 176.113 259.608,176.444 259.233,177.235 258.500 C 178.025 257.767,178.671 257.002,178.669 256.802 C 178.668 256.601,178.992 256.151,179.391 255.802 C 179.868 255.383,180.027 255.337,179.857 255.667 C 179.715 255.942,180.027 255.645,180.549 255.008 C 181.072 254.370,181.500 253.745,181.500 253.619 C 181.500 253.492,181.637 253.264,181.803 253.111 C 181.984 252.946,181.994 253.036,181.829 253.333 C 181.653 253.652,181.814 253.603,182.276 253.198 C 183.075 252.498,183.232 252.159,182.583 252.536 C 182.354 252.669,182.842 252.143,183.667 251.366 C 184.492 250.589,184.942 250.064,184.667 250.200 C 184.332 250.366,184.376 250.209,184.802 249.724 C 185.508 248.918,185.817 248.782,185.495 249.417 C 185.379 249.646,185.521 249.541,185.811 249.183 C 186.316 248.560,186.595 248.802,192.542 255.017 C 195.955 258.582,201.991 264.722,205.957 268.660 C 209.922 272.599,212.575 275.299,211.853 274.660 C 211.130 274.022,212.997 276.087,216.001 279.250 C 219.006 282.412,221.543 285.000,221.639 285.000 C 221.735 285.000,220.843 283.987,219.657 282.750 L 217.500 280.500 219.750 282.657 C 220.987 283.843,222.001 284.968,222.002 285.157 C 222.006 285.603,244.581 309.109,252.263 316.667 C 255.525 319.875,257.726 322.125,257.155 321.667 C 256.583 321.208,258.626 323.308,261.695 326.333 C 264.763 329.358,267.325 332.015,267.387 332.238 C 267.449 332.460,271.653 336.960,276.729 342.238 C 286.405 352.298,291.946 357.843,291.481 357.000 C 291.244 356.570,291.284 356.564,291.766 356.954 C 292.074 357.204,292.254 357.526,292.165 357.670 C 292.017 357.909,292.800 358.403,293.436 358.471 C 293.584 358.487,293.959 358.828,294.269 359.230 C 294.579 359.631,295.058 360.006,295.333 360.063 C 295.608 360.120,296.029 360.429,296.269 360.750 C 296.508 361.071,296.980 361.333,297.317 361.333 C 297.653 361.333,298.021 361.574,298.134 361.868 C 298.265 362.210,298.544 362.324,298.909 362.184 C 299.223 362.063,299.374 362.070,299.245 362.200 C 298.921 362.523,300.652 363.382,301.086 363.113 C 301.289 362.988,301.338 363.057,301.202 363.275 C 301.049 363.524,301.432 363.728,302.318 363.869 C 303.060 363.988,303.667 364.212,303.667 364.367 C 303.667 364.749,307.239 365.764,307.662 365.503 C 307.848 365.388,308.000 365.462,308.000 365.668 C 308.000 365.874,308.262 366.009,308.583 365.970 C 308.904 365.930,309.456 366.022,309.809 366.174 C 310.520 366.479,318.158 366.548,320.000 366.266 C 322.951 365.814,324.000 365.561,324.000 365.301 C 324.000 365.147,324.225 365.107,324.500 365.213 C 324.775 365.318,325.000 365.230,325.000 365.016 C 325.000 364.802,325.125 364.705,325.278 364.799 C 325.605 365.001,328.847 363.728,330.104 362.905 C 330.584 362.591,331.123 362.333,331.303 362.333 C 331.482 362.333,331.865 361.996,332.154 361.583 C 332.443 361.171,332.752 360.871,332.840 360.917 C 333.194 361.101,333.763 360.985,333.550 360.772 C 333.425 360.647,333.785 360.350,334.351 360.112 C 334.917 359.874,335.284 359.523,335.165 359.331 C 335.047 359.140,335.093 359.025,335.268 359.075 C 335.443 359.125,336.054 358.681,336.626 358.086 C 337.198 357.492,337.667 357.091,337.667 357.195 C 337.667 357.299,338.079 356.893,338.583 356.291 C 339.087 355.690,339.459 355.067,339.408 354.908 C 339.358 354.748,339.472 354.713,339.661 354.830 C 339.850 354.947,340.105 354.782,340.227 354.463 C 340.349 354.145,340.729 353.605,341.070 353.263 C 341.412 352.922,341.611 352.514,341.514 352.356 C 341.417 352.199,341.556 351.986,341.824 351.883 C 342.362 351.676,344.682 347.017,344.759 345.986 C 344.786 345.627,344.902 345.333,345.015 345.333 C 345.129 345.333,345.246 345.146,345.275 344.917 C 345.429 343.689,345.551 343.122,345.723 342.827 C 345.828 342.647,345.871 342.238,345.820 341.917 C 345.768 341.596,345.849 341.333,346.000 341.333 C 346.375 341.333,346.211 331.609,345.825 330.993 C 345.656 330.722,345.560 330.237,345.613 329.917 C 345.665 329.596,345.540 329.333,345.335 329.333 C 345.129 329.333,345.057 329.177,345.176 328.985 C 345.294 328.794,345.190 328.396,344.945 328.101 C 344.700 327.806,344.537 327.512,344.583 327.449 C 344.629 327.385,344.656 327.296,344.642 327.250 C 344.628 327.204,344.549 326.792,344.466 326.333 C 344.382 325.875,344.168 325.450,343.990 325.389 C 343.812 325.328,343.667 325.020,343.667 324.706 C 343.667 324.391,343.487 323.953,343.267 323.733 C 343.047 323.513,342.981 323.333,343.121 323.333 C 343.468 323.333,341.670 319.979,340.921 319.230 C 340.590 318.898,340.396 318.502,340.491 318.348 C 340.585 318.195,340.437 317.983,340.162 317.878 C 339.886 317.772,339.698 317.569,339.744 317.426 C 339.874 317.025,338.802 315.643,338.553 315.891 C 338.432 316.012,338.333 315.890,338.333 315.619 C 338.333 315.349,338.097 314.836,337.809 314.480 C 337.520 314.125,337.379 314.021,337.495 314.250 C 337.611 314.479,337.629 314.667,337.535 314.667 C 337.441 314.667,337.128 314.167,336.838 313.557 C 336.548 312.947,335.679 311.859,334.906 311.140 L 333.500 309.833 334.831 311.333 C 335.831 312.461,335.645 312.339,334.081 310.844 C 332.054 308.906,331.254 307.924,332.741 309.198 C 333.674 309.999,326.623 303.234,323.500 300.334 C 322.217 299.142,321.539 298.617,321.994 299.167 C 322.450 299.717,322.112 299.498,321.244 298.681 C 319.607 297.138,319.108 296.436,320.417 297.515 C 320.829 297.855,320.192 297.211,319.000 296.083 C 317.808 294.954,316.693 294.024,316.521 294.016 C 316.349 294.007,314.174 291.926,311.687 289.392 C 305.902 283.495,289.832 268.314,291.160 270.000 C 291.521 270.458,291.183 270.240,290.408 269.516 C 288.913 268.117,288.494 267.479,289.750 268.515 C 290.162 268.855,289.525 268.211,288.333 267.083 C 287.142 265.954,286.002 265.024,285.802 265.016 C 285.601 265.007,285.151 264.662,284.802 264.250 L 284.167 263.500 285.000 264.158 C 285.458 264.520,285.240 264.183,284.516 263.408 C 283.128 261.926,282.449 261.471,283.532 262.750 C 283.881 263.162,282.833 262.150,281.203 260.500 C 279.574 258.850,278.587 257.912,279.011 258.417 C 280.248 259.886,279.605 259.474,277.986 257.759 C 277.169 256.894,276.807 256.406,277.183 256.676 C 277.559 256.946,277.484 256.819,277.016 256.395 C 276.549 255.971,275.631 255.108,274.976 254.478 C 274.321 253.849,273.655 253.333,273.496 253.333 C 273.338 253.333,271.174 251.260,268.687 248.726 C 262.902 242.829,246.832 227.647,248.160 229.333 C 248.521 229.792,248.183 229.574,247.408 228.849 C 245.913 227.450,245.494 226.812,246.750 227.848 C 247.162 228.189,246.525 227.544,245.333 226.416 C 244.142 225.288,243.002 224.358,242.802 224.349 C 242.601 224.340,242.151 223.996,241.802 223.583 L 241.167 222.833 242.000 223.492 C 242.458 223.854,242.240 223.516,241.516 222.742 C 240.155 221.287,239.406 220.771,240.532 222.062 C 240.881 222.463,239.440 221.076,237.330 218.979 C 232.403 214.083,230.861 212.667,230.460 212.667 C 230.281 212.667,229.542 212.029,228.818 211.250 L 227.500 209.833 228.917 211.151 C 229.696 211.876,230.333 212.395,230.333 212.304 C 230.333 212.214,227.795 209.758,224.692 206.847 L 219.050 201.554 225.300 195.360 C 228.737 191.954,230.488 190.142,229.191 191.333 C 227.894 192.525,230.145 190.200,234.194 186.167 C 238.243 182.133,240.489 179.808,239.185 181.000 C 237.880 182.192,239.531 180.467,242.852 177.167 C 246.174 173.867,248.316 171.685,247.612 172.318 C 245.397 174.311,246.223 173.256,248.912 170.658 C 250.330 169.288,250.970 168.767,250.334 169.500 C 248.745 171.332,250.134 169.948,255.018 164.833 C 257.294 162.450,258.521 161.093,257.745 161.818 C 256.968 162.542,256.333 163.064,256.333 162.976 C 256.333 162.888,257.494 161.695,258.912 160.325 C 260.330 158.955,260.970 158.433,260.334 159.167 C 258.745 160.998,260.134 159.614,265.018 154.500 C 267.294 152.117,268.484 150.765,267.661 151.496 C 266.839 152.228,267.288 151.665,268.658 150.246 C 271.163 147.653,272.461 146.597,270.315 148.899 C 269.684 149.576,271.868 147.364,275.170 143.982 C 278.472 140.600,282.295 136.660,283.666 135.226 L 286.158 132.619 286.829 133.452 C 287.198 133.910,287.720 134.333,287.988 134.393 C 288.257 134.452,288.756 134.800,289.097 135.167 C 289.438 135.533,289.621 135.643,289.502 135.411 C 289.384 135.179,289.843 135.366,290.523 135.828 C 291.203 136.289,291.974 136.667,292.237 136.667 C 292.500 136.667,292.939 136.892,293.214 137.167 C 293.489 137.442,294.079 137.685,294.524 137.708 C 295.511 137.759,296.580 137.888,296.917 137.998 C 297.054 138.042,297.253 138.070,297.359 138.059 C 297.464 138.048,298.627 138.007,299.942 137.969 C 301.257 137.930,302.333 137.763,302.333 137.596 C 302.333 137.430,302.470 137.378,302.637 137.481 C 302.803 137.584,303.666 137.338,304.553 136.933 C 306.264 136.152,310.000 135.787,310.000 136.401 C 310.000 136.590,310.300 136.666,310.667 136.570 C 311.033 136.474,311.333 136.520,311.333 136.672 C 311.333 136.824,311.896 137.128,312.583 137.348 C 314.024 137.809,316.234 138.927,317.085 139.626 C 317.407 139.891,317.758 140.020,317.864 139.914 C 317.970 139.808,318.306 139.935,318.612 140.197 C 318.917 140.458,319.317 140.691,319.500 140.714 C 319.683 140.737,320.029 141.036,320.269 141.378 C 320.508 141.720,320.921 142.000,321.186 142.000 C 321.450 142.000,321.667 142.159,321.667 142.353 C 321.667 142.547,321.818 142.613,322.002 142.499 C 322.187 142.384,322.428 142.525,322.537 142.810 C 322.647 143.096,322.862 143.252,323.014 143.158 C 323.167 143.063,323.447 143.252,323.636 143.576 C 323.825 143.901,323.984 144.025,323.990 143.853 C 323.995 143.680,324.192 143.801,324.426 144.122 C 324.660 144.442,325.104 144.741,325.413 144.786 C 325.722 144.832,326.271 145.210,326.633 145.627 C 326.994 146.045,327.518 146.419,327.796 146.460 C 328.074 146.501,328.676 146.939,329.135 147.434 C 329.593 147.929,330.209 148.333,330.504 148.333 C 330.798 148.333,330.949 148.479,330.839 148.657 C 330.729 148.835,331.019 149.076,331.484 149.192 C 331.949 149.309,332.249 149.534,332.151 149.692 C 332.053 149.851,332.361 150.078,332.835 150.197 C 333.310 150.316,333.621 150.490,333.527 150.584 C 333.281 150.830,335.088 152.187,335.494 152.061 C 335.680 152.003,335.013 152.791,334.011 153.811 C 331.701 156.164,331.309 156.247,333.513 153.918 C 335.008 152.336,335.028 152.296,333.721 153.501 C 332.124 154.974,329.800 158.244,330.122 158.567 C 330.235 158.680,330.173 158.959,329.983 159.187 C 329.018 160.350,329.934 167.333,331.052 167.333 C 331.228 167.333,331.291 167.466,331.191 167.627 C 330.944 168.027,332.269 169.667,332.838 169.667 C 333.089 169.667,333.401 169.840,333.532 170.052 C 333.689 170.305,333.610 170.352,333.302 170.189 C 333.044 170.053,333.208 170.253,333.667 170.632 C 334.125 171.011,334.695 171.251,334.934 171.165 C 335.173 171.078,335.276 171.156,335.164 171.337 C 334.978 171.638,335.513 171.796,336.583 171.756 C 336.813 171.748,337.000 171.892,337.000 172.078 C 337.000 172.572,343.090 172.231,343.257 171.728 C 343.330 171.511,343.750 171.333,344.192 171.333 C 344.633 171.333,345.182 171.034,345.411 170.667 C 345.640 170.300,345.993 170.000,346.195 170.000 C 346.397 170.000,352.099 164.431,358.865 157.625 C 365.631 150.818,370.567 145.905,369.833 146.708 L 368.500 148.167 369.917 146.849 C 370.696 146.124,371.333 145.337,371.333 145.099 C 371.333 144.861,371.492 144.667,371.686 144.667 C 371.880 144.667,371.947 144.517,371.833 144.333 C 371.720 144.150,371.782 144.000,371.972 144.000 C 372.433 144.000,373.414 142.066,373.161 141.657 C 373.051 141.479,373.095 141.333,373.258 141.333 C 373.610 141.333,373.670 140.880,373.697 138.000 C 373.718 135.811,372.981 133.333,372.309 133.333 C 372.117 133.333,372.046 133.196,372.149 133.028 C 372.419 132.591,370.676 130.621,370.251 130.884 C 370.056 131.005,369.994 130.947,370.112 130.755 C 370.231 130.563,369.935 130.149,369.456 129.835 C 368.977 129.521,368.678 129.416,368.793 129.601 C 368.916 129.800,368.673 129.783,368.196 129.558 C 367.753 129.349,367.454 129.075,367.531 128.949 C 367.930 128.304,361.531 128.053,360.750 128.683 C 360.704 128.720,360.554 128.781,360.417 128.819 C 358.709 129.289,358.333 129.452,358.333 129.722 C 358.333 129.897,358.205 129.960,358.049 129.864 C 357.892 129.767,356.542 130.940,355.049 132.470 C 353.555 134.000,352.333 135.036,352.333 134.773 C 352.333 134.510,352.221 134.362,352.083 134.446 C 351.946 134.530,351.545 134.214,351.193 133.744 C 350.841 133.274,350.744 133.008,350.978 133.153 C 351.220 133.302,351.156 133.039,350.830 132.541 C 350.514 132.060,350.099 131.667,349.906 131.667 C 349.713 131.667,349.655 131.568,349.776 131.447 C 349.897 131.326,349.694 131.015,349.326 130.757 C 348.957 130.499,348.729 130.168,348.820 130.022 C 348.910 129.875,348.691 129.491,348.333 129.167 C 347.975 128.843,347.756 128.458,347.847 128.312 C 347.937 128.165,347.675 127.810,347.265 127.523 C 346.854 127.235,346.642 127.000,346.792 127.000 C 346.943 127.000,346.732 126.437,346.324 125.750 C 344.971 123.473,344.460 121.362,344.528 118.333 C 344.567 116.622,344.420 115.082,344.158 114.444 C 343.919 113.863,343.811 113.300,343.917 113.194 C 344.024 113.087,343.941 113.000,343.733 113.000 C 343.525 113.000,343.441 112.775,343.546 112.500 C 343.652 112.225,343.556 112.000,343.333 112.000 C 343.111 112.000,343.015 111.775,343.121 111.500 C 343.226 111.225,343.172 111.000,343.000 111.000 C 342.828 111.000,342.783 110.750,342.900 110.445 C 343.044 110.072,342.986 109.970,342.723 110.132 C 342.476 110.284,342.333 110.134,342.333 109.723 C 342.333 109.365,341.587 107.669,340.676 105.953 C 339.764 104.237,338.867 102.496,338.684 102.083 C 338.500 101.671,338.187 101.333,337.989 101.333 C 337.790 101.333,337.720 101.183,337.833 101.000 C 337.947 100.817,337.872 100.667,337.667 100.667 C 337.462 100.667,337.377 100.532,337.479 100.367 C 337.581 100.203,337.230 99.603,336.698 99.034 C 336.167 98.465,335.830 97.995,335.950 97.989 C 336.069 97.984,335.875 97.759,335.520 97.489 C 335.164 97.220,335.014 96.995,335.186 96.989 C 335.359 96.984,335.260 96.796,334.967 96.573 C 334.432 96.165,334.333 95.969,334.333 95.314 C 334.333 95.120,334.213 95.035,334.067 95.125 C 333.920 95.216,333.609 94.984,333.375 94.610 C 333.045 94.082,333.043 93.987,333.366 94.187 C 333.594 94.328,333.492 94.058,333.140 93.588 C 332.788 93.117,332.438 92.791,332.363 92.864 C 332.198 93.023,331.394 91.922,331.456 91.621 C 331.480 91.504,331.125 91.097,330.667 90.715 C 330.208 90.334,329.979 90.017,330.158 90.011 C 330.336 90.005,330.148 89.766,329.741 89.481 C 329.333 89.196,329.000 88.739,329.000 88.466 C 329.000 88.193,328.647 87.616,328.215 87.185 C 327.783 86.753,327.334 86.150,327.217 85.845 C 327.100 85.541,326.850 85.387,326.661 85.504 C 326.472 85.621,326.344 85.593,326.378 85.441 C 326.483 84.969,325.943 83.996,325.670 84.165 C 325.526 84.254,325.204 84.074,324.954 83.766 C 324.564 83.284,324.570 83.245,325.000 83.488 C 325.917 84.006,319.893 78.006,315.167 73.696 C 309.170 68.225,307.420 66.711,307.833 67.346 C 308.017 67.628,307.765 67.403,307.274 66.846 C 306.783 66.289,306.183 65.827,305.941 65.818 C 305.698 65.810,305.538 65.622,305.583 65.402 C 305.629 65.181,305.458 65.000,305.202 65.000 C 304.947 65.000,304.651 64.774,304.545 64.497 C 304.439 64.220,304.235 64.033,304.093 64.080 C 303.950 64.128,303.803 64.045,303.767 63.896 C 303.655 63.443,299.613 60.333,299.136 60.333 C 298.891 60.333,298.542 60.057,298.361 59.719 C 297.962 58.973,294.472 56.295,293.765 56.191 C 293.486 56.150,293.012 55.825,292.712 55.469 C 291.887 54.489,290.500 53.406,290.831 54.000 C 290.984 54.275,290.709 54.079,290.220 53.565 C 289.731 53.050,289.197 52.712,289.033 52.813 C 288.870 52.914,288.647 52.763,288.537 52.477 C 288.428 52.191,288.195 52.046,288.019 52.155 C 287.844 52.263,287.530 52.035,287.323 51.647 C 287.116 51.260,286.870 51.018,286.778 51.111 C 286.686 51.203,286.318 51.028,285.961 50.723 C 285.604 50.417,285.249 50.196,285.172 50.232 C 285.096 50.269,284.560 49.857,283.983 49.317 C 283.405 48.777,282.797 48.419,282.633 48.521 C 282.468 48.623,282.333 48.538,282.333 48.333 C 282.333 48.128,282.183 48.053,282.000 48.167 C 281.817 48.280,281.667 48.210,281.667 48.011 C 281.667 47.703,279.847 46.762,279.826 47.060 C 279.821 47.119,279.447 46.822,278.995 46.400 C 278.084 45.552,275.206 43.857,275.509 44.348 C 275.614 44.518,274.768 44.038,273.628 43.281 C 271.253 41.704,266.544 39.425,265.034 39.123 C 264.471 39.011,264.092 38.787,264.192 38.626 C 264.291 38.465,264.176 38.332,263.936 38.331 C 263.696 38.330,263.072 38.106,262.549 37.833 C 262.025 37.560,261.480 37.409,261.336 37.498 C 261.193 37.587,260.885 37.429,260.651 37.148 C 260.418 36.867,260.026 36.713,259.780 36.808 C 259.534 36.902,259.333 36.818,259.333 36.621 C 259.333 36.423,259.118 36.345,258.855 36.446 C 258.592 36.547,258.322 36.465,258.255 36.264 C 258.188 36.063,257.840 35.875,257.483 35.845 C 257.126 35.816,256.496 35.609,256.083 35.384 C 255.671 35.160,255.333 35.075,255.333 35.196 C 255.333 35.316,255.108 35.228,254.833 35.000 C 254.558 34.772,254.333 34.697,254.333 34.833 C 254.333 34.970,254.105 34.892,253.825 34.660 C 253.546 34.428,253.222 34.333,253.106 34.450 C 252.990 34.566,252.691 34.492,252.442 34.286 C 251.955 33.881,248.048 32.836,245.833 32.517 C 245.467 32.465,244.898 32.308,244.569 32.170 C 244.240 32.031,243.879 32.010,243.766 32.123 C 243.654 32.235,243.391 32.186,243.182 32.013 C 242.973 31.839,242.059 31.625,241.151 31.536 C 240.243 31.446,239.500 31.345,239.500 31.309 C 239.500 30.888,223.743 30.629,221.833 31.018 M258.521 59.083 L 259.500 60.167 258.417 59.188 C 257.821 58.649,257.333 58.162,257.333 58.104 C 257.333 57.847,257.608 58.074,258.521 59.083 M243.333 132.101 C 243.333 132.157,242.771 132.719,242.083 133.351 L 240.833 134.500 241.982 133.250 C 243.051 132.087,243.333 131.847,243.333 132.101 M240.667 134.768 C 240.667 134.824,240.104 135.386,239.417 136.018 L 238.167 137.167 239.315 135.917 C 240.385 134.753,240.667 134.513,240.667 134.768 M279.000 139.833 C 277.634 141.208,276.442 142.333,276.350 142.333 C 276.258 142.333,277.301 141.208,278.667 139.833 C 280.032 138.458,281.225 137.333,281.317 137.333 C 281.408 137.333,280.366 138.458,279.000 139.833 M175.333 160.569 C 175.333 160.820,175.034 160.555,173.653 159.083 L 172.167 157.500 173.750 158.986 C 174.621 159.803,175.333 160.516,175.333 160.569 M213.667 162.768 C 213.667 162.824,213.104 163.386,212.417 164.018 L 211.167 165.167 212.315 163.917 C 213.385 162.753,213.667 162.513,213.667 162.768 M179.833 164.667 C 180.549 165.400,181.210 166.000,181.302 166.000 C 181.394 166.000,180.883 165.400,180.167 164.667 C 179.451 163.933,178.790 163.333,178.698 163.333 C 178.606 163.333,179.117 163.933,179.833 164.667 M211.000 165.435 C 211.000 165.490,210.438 166.053,209.750 166.685 L 208.500 167.833 209.649 166.583 C 210.718 165.420,211.000 165.180,211.000 165.435 M128.667 188.833 C 129.848 190.025,130.889 191.000,130.981 191.000 C 131.072 191.000,130.181 190.025,129.000 188.833 C 127.819 187.642,126.778 186.667,126.686 186.667 C 126.594 186.667,127.486 187.642,128.667 188.833 M220.315 200.583 L 219.167 201.833 220.417 200.685 C 221.580 199.615,221.820 199.333,221.565 199.333 C 221.510 199.333,220.947 199.896,220.315 200.583 M224.333 206.903 C 224.333 207.153,224.034 206.888,222.653 205.417 L 221.167 203.833 222.750 205.319 C 223.621 206.137,224.333 206.849,224.333 206.903 M236.667 218.569 C 236.667 218.820,236.367 218.555,234.986 217.083 L 233.500 215.500 235.083 216.986 C 235.954 217.803,236.667 218.516,236.667 218.569 M259.833 240.333 C 260.549 241.067,261.060 241.667,260.969 241.667 C 260.877 241.667,260.216 241.067,259.500 240.333 C 258.784 239.600,258.273 239.000,258.365 239.000 C 258.456 239.000,259.117 239.600,259.833 240.333 M267.333 247.569 C 267.333 247.820,267.034 247.555,265.653 246.083 L 264.167 244.500 265.750 245.986 C 266.621 246.803,267.333 247.516,267.333 247.569 M271.833 251.667 C 272.549 252.400,273.210 253.000,273.302 253.000 C 273.394 253.000,272.883 252.400,272.167 251.667 C 271.451 250.933,270.790 250.333,270.698 250.333 C 270.606 250.333,271.117 250.933,271.833 251.667 M192.833 254.667 C 194.107 255.950,195.074 257.000,194.982 257.000 C 194.890 257.000,193.773 255.950,192.500 254.667 C 191.227 253.383,190.260 252.333,190.351 252.333 C 190.443 252.333,191.560 253.383,192.833 254.667 M201.833 264.000 C 203.107 265.283,204.074 266.333,203.982 266.333 C 203.890 266.333,202.773 265.283,201.500 264.000 C 200.227 262.717,199.260 261.667,199.351 261.667 C 199.443 261.667,200.560 262.717,201.833 264.000 M208.333 271.438 C 208.333 271.495,208.821 271.983,209.417 272.521 L 210.500 273.500 209.521 272.417 C 208.608 271.407,208.333 271.180,208.333 271.438 M302.833 281.000 C 303.549 281.733,304.060 282.333,303.969 282.333 C 303.877 282.333,303.216 281.733,302.500 281.000 C 301.784 280.267,301.273 279.667,301.365 279.667 C 301.456 279.667,302.117 280.267,302.833 281.000 M310.333 288.236 C 310.333 288.486,310.034 288.222,308.653 286.750 L 307.167 285.167 308.750 286.653 C 309.621 287.470,310.333 288.183,310.333 288.236 M227.854 291.083 L 228.833 292.167 227.750 291.188 C 226.740 290.275,226.513 290.000,226.771 290.000 C 226.828 290.000,227.316 290.487,227.854 291.083 M314.833 292.333 C 315.549 293.067,316.210 293.667,316.302 293.667 C 316.394 293.667,315.883 293.067,315.167 292.333 C 314.451 291.600,313.790 291.000,313.698 291.000 C 313.606 291.000,314.117 291.600,314.833 292.333 M230.188 293.417 L 231.167 294.500 230.083 293.521 C 229.487 292.983,229.000 292.495,229.000 292.438 C 229.000 292.180,229.275 292.407,230.188 293.417 M236.854 300.417 L 237.833 301.500 236.750 300.521 C 236.154 299.983,235.667 299.495,235.667 299.438 C 235.667 299.180,235.942 299.407,236.854 300.417 M239.333 302.833 C 239.955 303.475,240.389 304.000,240.297 304.000 C 240.206 304.000,239.622 303.475,239.000 302.833 C 238.378 302.192,237.944 301.667,238.036 301.667 C 238.128 301.667,238.711 302.192,239.333 302.833 M247.167 311.000 C 248.440 312.283,249.407 313.333,249.315 313.333 C 249.224 313.333,248.107 312.283,246.833 311.000 C 245.560 309.717,244.593 308.667,244.685 308.667 C 244.776 308.667,245.893 309.717,247.167 311.000 M253.667 318.438 C 253.667 318.495,254.154 318.983,254.750 319.521 L 255.833 320.500 254.854 319.417 C 253.942 318.407,253.667 318.180,253.667 318.438 M316.500 321.463 C 316.867 321.547,317.242 321.645,317.333 321.681 C 317.425 321.716,317.612 321.728,317.750 321.706 C 317.887 321.684,318.000 321.800,318.000 321.964 C 318.000 322.127,318.347 322.348,318.771 322.454 C 319.194 322.561,319.972 323.019,320.500 323.472 C 321.027 323.925,321.557 324.234,321.678 324.160 C 321.799 324.085,322.333 324.492,322.866 325.063 C 323.398 325.635,323.608 325.976,323.333 325.821 C 322.737 325.484,323.395 326.429,324.410 327.367 C 324.728 327.661,324.901 327.988,324.794 328.095 C 324.687 328.202,324.726 328.486,324.881 328.728 C 326.061 330.573,326.611 335.718,325.796 337.291 C 325.570 337.727,325.465 338.289,325.562 338.541 C 325.659 338.794,325.572 339.000,325.369 339.000 C 325.166 339.000,325.000 339.207,325.000 339.459 C 325.000 339.712,324.777 340.104,324.504 340.330 C 324.231 340.557,324.071 340.845,324.148 340.970 C 324.226 341.096,323.587 341.878,322.728 342.708 C 321.869 343.539,321.129 344.319,321.083 344.443 C 321.037 344.566,320.941 344.629,320.868 344.583 C 320.796 344.537,320.407 344.798,320.005 345.162 C 319.603 345.526,319.099 345.828,318.887 345.833 C 318.674 345.837,318.044 346.089,317.487 346.393 C 316.697 346.823,315.778 346.921,313.320 346.837 C 309.861 346.718,309.731 346.696,307.911 345.907 C 307.220 345.607,306.548 345.318,306.419 345.264 C 306.289 345.211,305.429 344.437,304.508 343.544 C 303.587 342.652,302.758 341.939,302.667 341.961 C 302.575 341.982,302.481 341.850,302.458 341.667 C 302.435 341.483,302.398 341.174,302.375 340.980 C 302.352 340.786,302.146 340.735,301.917 340.867 C 301.688 340.999,301.599 340.996,301.720 340.861 C 301.842 340.725,301.541 339.614,301.052 338.391 C 300.189 336.230,299.840 332.402,300.421 331.462 C 300.537 331.274,300.706 330.713,300.796 330.215 C 300.886 329.717,301.267 328.813,301.642 328.206 C 302.018 327.599,302.214 326.980,302.079 326.831 C 301.944 326.682,302.005 326.658,302.215 326.778 C 302.425 326.898,302.697 326.735,302.820 326.415 C 302.943 326.095,302.996 325.808,302.938 325.777 C 302.637 325.615,304.512 324.027,305.212 323.852 C 305.730 323.722,305.942 323.499,305.794 323.240 C 305.665 323.016,305.674 322.936,305.813 323.061 C 305.953 323.187,306.886 322.846,307.887 322.304 C 308.888 321.762,309.824 321.391,309.966 321.479 C 310.108 321.567,310.661 321.503,311.195 321.338 C 312.108 321.056,315.016 321.124,316.500 321.463 M264.667 329.833 C 265.848 331.025,266.889 332.000,266.981 332.000 C 267.072 332.000,266.181 331.025,265.000 329.833 C 263.819 328.642,262.778 327.667,262.686 327.667 C 262.594 327.667,263.486 328.642,264.667 329.833 M274.333 339.167 C 275.514 340.358,276.406 341.333,276.314 341.333 C 276.222 341.333,275.181 340.358,274.000 339.167 C 272.819 337.975,271.928 337.000,272.019 337.000 C 272.111 337.000,273.152 337.975,274.333 339.167 M282.188 347.417 L 283.167 348.500 282.083 347.521 C 281.487 346.983,281.000 346.495,281.000 346.438 C 281.000 346.180,281.275 346.407,282.188 347.417 M284.521 349.750 L 285.500 350.833 284.417 349.854 C 283.821 349.316,283.333 348.828,283.333 348.771 C 283.333 348.513,283.608 348.740,284.521 349.750 " stroke="none" fill="#04040c" fill-rule="evenodd"></path><path id="path1" d="M89.254 48.236 C 89.669 48.315,90.269 48.312,90.587 48.229 C 90.906 48.146,90.567 48.080,89.833 48.084 C 89.100 48.088,88.839 48.156,89.254 48.236 M93.917 48.235 C 94.329 48.315,95.004 48.315,95.417 48.235 C 95.829 48.156,95.492 48.091,94.667 48.091 C 93.842 48.091,93.504 48.156,93.917 48.235 M257.333 58.104 C 257.333 58.162,257.821 58.649,258.417 59.188 L 259.500 60.167 258.521 59.083 C 257.608 58.074,257.333 57.847,257.333 58.104 M97.000 74.167 C 105.707 82.875,112.906 90.000,112.997 90.000 C 113.089 90.000,106.040 82.875,97.333 74.167 C 88.626 65.458,81.428 58.333,81.336 58.333 C 81.244 58.333,88.293 65.458,97.000 74.167 M260.333 114.167 C 258.968 115.542,257.925 116.667,258.017 116.667 C 258.108 116.667,259.301 115.542,260.667 114.167 C 262.032 112.792,263.075 111.667,262.983 111.667 C 262.892 111.667,261.699 112.792,260.333 114.167 M61.167 130.333 C 66.664 135.833,71.237 140.333,71.329 140.333 C 71.421 140.333,66.998 135.833,61.500 130.333 C 56.002 124.833,51.429 120.333,51.338 120.333 C 51.246 120.333,55.669 124.833,61.167 130.333 M250.667 124.167 C 249.301 125.542,248.258 126.667,248.350 126.667 C 248.442 126.667,249.634 125.542,251.000 124.167 C 252.366 122.792,253.408 121.667,253.317 121.667 C 253.225 121.667,252.032 122.792,250.667 124.167 M241.982 133.250 L 240.833 134.500 242.083 133.351 C 243.247 132.282,243.487 132.000,243.232 132.000 C 243.176 132.000,242.614 132.563,241.982 133.250 M239.315 135.917 L 238.167 137.167 239.417 136.018 C 240.580 134.949,240.820 134.667,240.565 134.667 C 240.510 134.667,239.947 135.229,239.315 135.917 M278.667 139.833 C 277.301 141.208,276.258 142.333,276.350 142.333 C 276.442 142.333,277.634 141.208,279.000 139.833 C 280.366 138.458,281.408 137.333,281.317 137.333 C 281.225 137.333,280.032 138.458,278.667 139.833 M297.917 138.235 C 298.329 138.315,299.004 138.315,299.417 138.235 C 299.829 138.156,299.492 138.091,298.667 138.091 C 297.842 138.091,297.504 138.156,297.917 138.235 M230.667 144.833 C 229.301 146.208,228.258 147.333,228.350 147.333 C 228.442 147.333,229.634 146.208,231.000 144.833 C 232.366 143.458,233.408 142.333,233.317 142.333 C 233.225 142.333,232.032 143.458,230.667 144.833 M369.484 146.750 L 368.167 148.167 369.583 146.849 C 370.901 145.624,371.153 145.333,370.901 145.333 C 370.847 145.333,370.209 145.971,369.484 146.750 M268.667 150.167 C 267.301 151.542,266.258 152.667,266.350 152.667 C 266.442 152.667,267.634 151.542,269.000 150.167 C 270.366 148.792,271.408 147.667,271.317 147.667 C 271.225 147.667,270.032 148.792,268.667 150.167 M167.500 153.333 C 168.216 154.067,168.877 154.667,168.969 154.667 C 169.060 154.667,168.549 154.067,167.833 153.333 C 167.117 152.600,166.456 152.000,166.365 152.000 C 166.273 152.000,166.784 152.600,167.500 153.333 M333.655 153.917 L 331.833 155.833 333.750 154.011 C 334.804 153.009,335.667 152.147,335.667 152.095 C 335.667 151.847,335.348 152.136,333.655 153.917 M221.000 154.833 C 219.634 156.208,218.592 157.333,218.683 157.333 C 218.775 157.333,219.968 156.208,221.333 154.833 C 222.699 153.458,223.742 152.333,223.650 152.333 C 223.558 152.333,222.366 153.458,221.000 154.833 M173.653 159.083 C 174.470 159.954,175.183 160.667,175.236 160.667 C 175.486 160.667,175.222 160.367,173.750 158.986 L 172.167 157.500 173.653 159.083 M258.667 160.500 C 257.301 161.875,256.258 163.000,256.350 163.000 C 256.442 163.000,257.634 161.875,259.000 160.500 C 260.366 159.125,261.408 158.000,261.317 158.000 C 261.225 158.000,260.032 159.125,258.667 160.500 M212.315 163.917 L 211.167 165.167 212.417 164.018 C 213.580 162.949,213.820 162.667,213.565 162.667 C 213.510 162.667,212.947 163.229,212.315 163.917 M179.738 164.834 C 180.603 165.733,181.361 166.400,181.423 166.317 C 181.484 166.234,180.777 165.499,179.851 164.683 L 178.167 163.200 179.738 164.834 M209.649 166.583 L 208.500 167.833 209.750 166.685 C 210.913 165.615,211.153 165.333,210.899 165.333 C 210.843 165.333,210.281 165.896,209.649 166.583 M248.667 170.833 C 247.301 172.208,246.258 173.333,246.350 173.333 C 246.442 173.333,247.634 172.208,249.000 170.833 C 250.366 169.458,251.408 168.333,251.317 168.333 C 251.225 168.333,250.032 169.458,248.667 170.833 M185.986 170.750 C 186.803 171.621,187.516 172.333,187.569 172.333 C 187.820 172.333,187.555 172.034,186.083 170.653 L 184.500 169.167 185.986 170.750 M201.000 175.500 C 199.634 176.875,198.592 178.000,198.683 178.000 C 198.775 178.000,199.968 176.875,201.333 175.500 C 202.699 174.125,203.742 173.000,203.650 173.000 C 203.558 173.000,202.366 174.125,201.000 175.500 M239.000 180.833 C 237.634 182.208,236.592 183.333,236.683 183.333 C 236.775 183.333,237.968 182.208,239.333 180.833 C 240.699 179.458,241.742 178.333,241.650 178.333 C 241.558 178.333,240.366 179.458,239.000 180.833 M128.844 188.674 C 130.122 190.052,131.235 191.134,131.318 191.078 C 131.401 191.021,130.356 189.893,128.996 188.571 L 126.522 186.167 128.844 188.674 M229.000 191.167 C 227.634 192.542,226.592 193.667,226.683 193.667 C 226.775 193.667,227.968 192.542,229.333 191.167 C 230.699 189.792,231.742 188.667,231.650 188.667 C 231.558 188.667,230.366 189.792,229.000 191.167 M138.012 198.175 C 139.197 199.463,140.235 200.470,140.318 200.413 C 140.401 200.356,139.431 199.302,138.163 198.071 L 135.857 195.833 138.012 198.175 M220.151 200.417 L 218.833 201.833 220.250 200.516 C 221.567 199.290,221.820 199.000,221.568 199.000 C 221.513 199.000,220.876 199.637,220.151 200.417 M222.653 205.417 C 223.470 206.287,224.183 207.000,224.236 207.000 C 224.486 207.000,224.222 206.701,222.750 205.319 L 221.167 203.833 222.653 205.417 M147.012 207.508 C 148.197 208.796,149.235 209.803,149.318 209.746 C 149.401 209.689,148.431 208.635,147.163 207.404 L 144.857 205.167 147.012 207.508 M228.905 211.336 C 229.678 212.141,230.363 212.733,230.426 212.650 C 230.490 212.568,229.858 211.908,229.021 211.185 L 227.500 209.870 228.905 211.336 M234.986 217.083 C 235.803 217.954,236.516 218.667,236.569 218.667 C 236.820 218.667,236.555 218.367,235.083 216.986 L 233.500 215.500 234.986 217.083 M247.167 228.667 C 247.883 229.400,248.544 230.000,248.635 230.000 C 248.727 230.000,248.216 229.400,247.500 228.667 C 246.784 227.933,246.123 227.333,246.031 227.333 C 245.940 227.333,246.451 227.933,247.167 228.667 M259.500 240.333 C 260.216 241.067,260.877 241.667,260.969 241.667 C 261.060 241.667,260.549 241.067,259.833 240.333 C 259.117 239.600,258.456 239.000,258.365 239.000 C 258.273 239.000,258.784 239.600,259.500 240.333 M265.653 246.083 C 266.470 246.954,267.183 247.667,267.236 247.667 C 267.486 247.667,267.222 247.367,265.750 245.986 L 264.167 244.500 265.653 246.083 M271.738 251.834 C 272.603 252.733,273.361 253.400,273.423 253.317 C 273.484 253.234,272.777 252.499,271.851 251.683 L 270.167 250.200 271.738 251.834 M192.500 254.667 C 193.773 255.950,194.890 257.000,194.982 257.000 C 195.074 257.000,194.107 255.950,192.833 254.667 C 191.560 253.383,190.443 252.333,190.351 252.333 C 190.260 252.333,191.227 253.383,192.500 254.667 M277.986 257.750 C 278.803 258.621,279.516 259.333,279.569 259.333 C 279.820 259.333,279.555 259.034,278.083 257.653 L 276.500 256.167 277.986 257.750 M201.500 264.000 C 202.773 265.283,203.890 266.333,203.982 266.333 C 204.074 266.333,203.107 265.283,201.833 264.000 C 200.560 262.717,199.443 261.667,199.351 261.667 C 199.260 261.667,200.227 262.717,201.500 264.000 M290.167 269.333 C 290.883 270.067,291.544 270.667,291.635 270.667 C 291.727 270.667,291.216 270.067,290.500 269.333 C 289.784 268.600,289.123 268.000,289.031 268.000 C 288.940 268.000,289.451 268.600,290.167 269.333 M210.500 273.333 C 211.773 274.617,212.890 275.667,212.982 275.667 C 213.074 275.667,212.107 274.617,210.833 273.333 C 209.560 272.050,208.443 271.000,208.351 271.000 C 208.260 271.000,209.227 272.050,210.500 273.333 M302.500 281.000 C 303.216 281.733,303.877 282.333,303.969 282.333 C 304.060 282.333,303.549 281.733,302.833 281.000 C 302.117 280.267,301.456 279.667,301.365 279.667 C 301.273 279.667,301.784 280.267,302.500 281.000 M219.678 282.842 C 220.864 284.130,221.901 285.137,221.985 285.079 C 222.068 285.022,221.098 283.968,219.830 282.738 L 217.524 280.500 219.678 282.842 M308.653 286.750 C 309.470 287.621,310.183 288.333,310.236 288.333 C 310.486 288.333,310.222 288.034,308.750 286.653 L 307.167 285.167 308.653 286.750 M226.667 290.104 C 226.667 290.162,227.154 290.649,227.750 291.188 L 228.833 292.167 227.854 291.083 C 226.942 290.074,226.667 289.847,226.667 290.104 M314.738 292.501 C 315.603 293.399,316.361 294.067,316.423 293.984 C 316.484 293.901,315.777 293.166,314.851 292.350 L 313.167 290.867 314.738 292.501 M229.000 292.438 C 229.000 292.495,229.487 292.983,230.083 293.521 L 231.167 294.500 230.188 293.417 C 229.275 292.407,229.000 292.180,229.000 292.438 M320.986 298.417 C 321.803 299.287,322.516 300.000,322.569 300.000 C 322.820 300.000,322.555 299.701,321.083 298.319 L 319.500 296.833 320.986 298.417 M235.667 299.438 C 235.667 299.495,236.154 299.983,236.750 300.521 L 237.833 301.500 236.854 300.417 C 235.942 299.407,235.667 299.180,235.667 299.438 M239.000 302.833 C 239.622 303.475,240.206 304.000,240.297 304.000 C 240.389 304.000,239.955 303.475,239.333 302.833 C 238.711 302.192,238.128 301.667,238.036 301.667 C 237.944 301.667,238.378 302.192,239.000 302.833 M246.833 311.000 C 248.107 312.283,249.224 313.333,249.315 313.333 C 249.407 313.333,248.440 312.283,247.167 311.000 C 245.893 309.717,244.776 308.667,244.685 308.667 C 244.593 308.667,245.560 309.717,246.833 311.000 M333.833 310.667 C 334.922 311.767,335.887 312.667,335.979 312.667 C 336.071 312.667,335.255 311.767,334.167 310.667 C 333.078 309.567,332.113 308.667,332.021 308.667 C 331.929 308.667,332.745 309.567,333.833 310.667 M255.833 320.333 C 257.107 321.617,258.224 322.667,258.315 322.667 C 258.407 322.667,257.440 321.617,256.167 320.333 C 254.893 319.050,253.776 318.000,253.685 318.000 C 253.593 318.000,254.560 319.050,255.833 320.333 M312.587 321.236 C 313.002 321.315,313.602 321.312,313.921 321.229 C 314.239 321.146,313.900 321.080,313.167 321.084 C 312.433 321.088,312.173 321.156,312.587 321.236 M303.641 324.917 L 302.833 325.833 303.833 325.000 C 304.383 324.542,304.896 324.129,304.972 324.083 C 305.049 324.037,304.962 324.000,304.780 324.000 C 304.598 324.000,304.086 324.412,303.641 324.917 M321.667 324.104 C 321.667 324.162,322.154 324.649,322.750 325.188 L 323.833 326.167 322.854 325.083 C 321.942 324.074,321.667 323.847,321.667 324.104 M264.844 329.674 C 266.122 331.052,267.235 332.134,267.318 332.078 C 267.401 332.021,266.356 330.893,264.996 329.571 L 262.522 327.167 264.844 329.674 M326.077 334.000 C 326.077 334.642,326.146 334.904,326.230 334.583 C 326.314 334.262,326.314 333.737,326.230 333.417 C 326.146 333.096,326.077 333.358,326.077 334.000 M274.000 339.167 C 275.181 340.358,276.222 341.333,276.314 341.333 C 276.406 341.333,275.514 340.358,274.333 339.167 C 273.152 337.975,272.111 337.000,272.019 337.000 C 271.928 337.000,272.819 337.975,274.000 339.167 M281.000 346.438 C 281.000 346.495,281.487 346.983,282.083 347.521 L 283.167 348.500 282.188 347.417 C 281.275 346.407,281.000 346.180,281.000 346.438 M283.333 348.771 C 283.333 348.828,283.821 349.316,284.417 349.854 L 285.500 350.833 284.521 349.750 C 283.608 348.740,283.333 348.513,283.333 348.771 " stroke="none" fill="#040404" fill-rule="evenodd"></path><path id="path2" d="" stroke="none" fill="#040c0c" fill-rule="evenodd"></path><path id="path3" d="" stroke="none" fill="#08040c" fill-rule="evenodd"></path><path id="path4" d="" stroke="none" fill="#08040c" fill-rule="evenodd"></path></g></svg>