<svg id="svg" version="1.1" xmlns="http://www.w3.org/2000/svg" xmlns:xlink="http://www.w3.org/1999/xlink" width="400" height="400" viewBox="0, 0, 400,400"><g id="svgg"><path id="path0" d="M125.200 56.200 C 125.200 57.133,125.067 57.200,123.200 57.200 C 121.333 57.200,121.200 57.267,121.200 58.200 C 121.200 59.000,121.000 59.200,120.200 59.200 C 119.400 59.200,119.200 59.400,119.200 60.200 C 119.200 61.000,119.000 61.200,118.200 61.200 C 117.400 61.200,117.200 61.400,117.200 62.200 C 117.200 63.000,117.000 63.200,116.200 63.200 C 115.267 63.200,115.200 63.333,115.200 65.200 C 115.200 67.067,115.133 67.200,114.200 67.200 L 113.200 67.200 113.200 112.000 L 113.200 156.800 114.172 156.800 C 114.876 156.800,115.180 157.049,115.272 157.700 C 115.398 158.587,115.494 158.602,122.100 158.710 L 128.800 158.819 128.800 157.810 C 128.800 156.820,128.859 156.800,131.800 156.800 C 134.733 156.800,134.800 156.778,134.800 155.800 C 134.800 154.828,134.878 154.800,137.631 154.800 C 140.226 154.800,140.559 154.703,141.631 153.631 L 142.800 152.462 142.800 134.631 L 142.800 116.800 252.000 116.800 L 361.200 116.800 361.200 188.000 L 361.200 259.200 308.200 259.200 L 255.200 259.200 255.200 274.000 L 255.200 288.800 316.854 288.800 L 378.508 288.800 379.435 287.800 C 380.033 287.155,380.794 286.800,381.581 286.800 C 382.615 286.800,382.800 286.648,382.800 285.800 C 382.800 285.000,383.000 284.800,383.800 284.800 C 384.600 284.800,384.800 284.600,384.800 283.800 C 384.800 283.000,385.000 282.800,385.800 282.800 C 386.600 282.800,386.800 282.600,386.800 281.800 C 386.800 281.000,387.000 280.800,387.800 280.800 C 388.733 280.800,388.800 280.667,388.800 278.800 C 388.800 276.933,388.867 276.800,389.800 276.800 L 390.800 276.800 390.800 172.146 L 390.800 67.492 389.800 66.565 C 389.155 65.967,388.800 65.206,388.800 64.419 C 388.800 63.385,388.648 63.200,387.800 63.200 C 387.000 63.200,386.800 63.000,386.800 62.200 C 386.800 61.400,386.600 61.200,385.800 61.200 C 385.000 61.200,384.800 61.000,384.800 60.200 C 384.800 59.400,384.600 59.200,383.800 59.200 C 383.000 59.200,382.800 59.000,382.800 58.200 C 382.800 57.352,382.615 57.200,381.581 57.200 C 380.794 57.200,380.033 56.845,379.435 56.200 L 378.508 55.200 251.854 55.200 L 125.200 55.200 125.200 56.200 M149.713 79.589 C 149.859 80.149,150.395 80.454,151.560 80.640 C 153.096 80.886,153.200 80.986,153.200 82.223 C 153.200 83.481,154.033 84.800,154.829 84.800 C 155.033 84.800,155.200 85.340,155.200 86.000 C 155.200 86.660,155.033 87.200,154.829 87.200 C 154.022 87.200,153.200 88.527,153.200 89.829 C 153.200 91.124,153.124 91.200,151.829 91.200 C 150.527 91.200,149.200 92.022,149.200 92.829 C 149.200 93.619,146.502 93.232,146.287 92.411 C 146.142 91.856,145.609 91.547,144.484 91.367 C 142.991 91.128,142.872 91.009,142.633 89.516 C 142.453 88.391,142.144 87.858,141.589 87.713 C 140.359 87.391,140.494 84.645,141.800 83.435 C 142.350 82.925,142.800 82.124,142.800 81.654 C 142.800 81.036,143.049 80.799,143.700 80.796 C 144.195 80.794,144.960 80.352,145.400 79.814 C 146.464 78.514,149.392 78.361,149.713 79.589 M177.200 79.800 C 177.200 80.600,177.400 80.800,178.200 80.800 C 179.000 80.800,179.200 81.000,179.200 81.800 C 179.200 82.600,179.400 82.800,180.200 82.800 C 181.183 82.800,181.200 82.853,181.200 86.000 C 181.200 89.147,181.183 89.200,180.200 89.200 C 179.400 89.200,179.200 89.400,179.200 90.200 C 179.200 91.000,179.000 91.200,178.200 91.200 C 177.400 91.200,177.200 91.400,177.200 92.200 C 177.200 93.145,177.080 93.200,175.000 93.200 C 172.920 93.200,172.800 93.145,172.800 92.200 C 172.800 91.408,172.598 91.200,171.828 91.200 C 171.124 91.200,170.820 90.951,170.728 90.300 C 170.646 89.722,170.278 89.354,169.700 89.272 C 168.368 89.083,168.304 83.023,169.630 82.676 C 170.086 82.557,170.557 82.086,170.676 81.630 C 170.819 81.083,171.218 80.800,171.847 80.800 C 172.597 80.800,172.800 80.587,172.800 79.800 C 172.800 78.855,172.920 78.800,175.000 78.800 C 177.080 78.800,177.200 78.855,177.200 79.800 M203.272 79.700 C 203.381 80.468,203.679 80.618,205.300 80.722 L 207.200 80.844 207.200 82.822 C 207.200 84.665,207.268 84.800,208.200 84.800 C 209.044 84.800,209.200 84.987,209.200 86.000 C 209.200 87.013,209.044 87.200,208.200 87.200 C 207.356 87.200,207.200 87.387,207.200 88.400 C 207.200 89.940,205.940 91.200,204.400 91.200 C 203.387 91.200,203.200 91.356,203.200 92.200 C 203.200 93.145,203.080 93.200,201.000 93.200 C 198.920 93.200,198.800 93.145,198.800 92.200 C 198.800 91.400,198.600 91.200,197.800 91.200 C 197.000 91.200,196.800 91.000,196.800 90.200 C 196.800 89.400,196.600 89.200,195.800 89.200 C 194.817 89.200,194.800 89.147,194.800 86.000 C 194.800 82.853,194.817 82.800,195.800 82.800 C 196.600 82.800,196.800 82.600,196.800 81.800 C 196.800 81.000,197.000 80.800,197.800 80.800 C 198.600 80.800,198.800 80.600,198.800 79.800 C 198.800 78.336,203.065 78.240,203.272 79.700 M313.200 144.200 C 313.200 145.000,313.000 145.200,312.200 145.200 C 311.400 145.200,311.200 145.400,311.200 146.200 C 311.200 147.000,311.000 147.200,310.200 147.200 C 309.414 147.200,309.200 147.403,309.200 148.149 C 309.200 148.950,308.945 149.138,307.560 149.360 C 306.415 149.543,305.859 149.854,305.719 150.389 C 305.598 150.852,305.101 151.203,304.459 151.277 C 303.713 151.364,303.362 151.666,303.272 152.300 C 303.180 152.951,302.876 153.200,302.172 153.200 C 301.402 153.200,301.200 153.408,301.200 154.200 C 301.200 155.000,301.000 155.200,300.200 155.200 C 299.400 155.200,299.200 155.400,299.200 156.200 C 299.200 157.000,299.000 157.200,298.200 157.200 C 297.400 157.200,297.200 157.400,297.200 158.200 C 297.200 159.000,297.000 159.200,296.200 159.200 C 295.400 159.200,295.200 159.400,295.200 160.200 C 295.200 161.072,295.025 161.200,293.829 161.200 C 292.527 161.200,291.200 162.022,291.200 162.829 C 291.200 163.033,290.750 163.200,290.200 163.200 C 289.400 163.200,289.200 163.400,289.200 164.200 C 289.200 165.000,289.000 165.200,288.200 165.200 C 287.400 165.200,287.200 165.400,287.200 166.200 C 287.200 167.000,287.000 167.200,286.200 167.200 C 285.400 167.200,285.200 167.400,285.200 168.200 C 285.200 169.000,285.000 169.200,284.200 169.200 C 283.400 169.200,283.200 169.400,283.200 170.200 C 283.200 171.000,283.000 171.200,282.200 171.200 C 281.400 171.200,281.200 171.400,281.200 172.200 C 281.200 173.072,281.025 173.200,279.829 173.200 C 278.527 173.200,277.200 174.022,277.200 174.829 C 277.200 175.033,276.750 175.200,276.200 175.200 C 275.400 175.200,275.200 175.400,275.200 176.200 C 275.200 177.000,275.000 177.200,274.200 177.200 L 273.200 177.200 273.200 183.000 L 273.200 188.800 275.200 188.800 C 277.067 188.800,277.200 188.867,277.200 189.800 C 277.200 190.733,277.333 190.800,279.200 190.800 C 281.067 190.800,281.200 190.867,281.200 191.800 C 281.200 192.733,281.333 192.800,283.200 192.800 C 285.156 192.800,285.200 192.827,285.200 194.000 C 285.200 195.013,285.044 195.200,284.200 195.200 C 283.267 195.200,283.200 195.333,283.200 197.200 C 283.200 199.067,283.133 199.200,282.200 199.200 C 281.267 199.200,281.200 199.333,281.200 201.200 C 281.200 203.067,281.133 203.200,280.200 203.200 C 279.352 203.200,279.200 203.385,279.200 204.419 C 279.200 205.206,278.845 205.967,278.200 206.565 C 277.612 207.110,277.200 207.934,277.200 208.565 C 277.200 209.196,276.788 210.020,276.200 210.565 C 275.643 211.081,275.200 211.938,275.200 212.499 C 275.200 213.166,274.933 213.577,274.411 213.713 C 273.851 213.859,273.546 214.395,273.360 215.560 C 273.216 216.462,272.954 217.200,272.777 217.200 C 271.527 217.200,271.200 218.534,271.200 223.629 L 271.200 228.800 272.178 228.800 C 273.061 228.800,273.168 228.985,273.278 230.700 L 273.400 232.600 275.300 232.722 C 277.015 232.832,277.200 232.939,277.200 233.822 C 277.200 234.791,277.236 234.800,281.000 234.800 C 284.787 234.800,284.800 234.796,284.800 233.800 C 284.800 232.867,284.933 232.800,286.800 232.800 C 288.651 232.800,288.800 232.728,288.800 231.828 C 288.800 231.124,289.049 230.820,289.700 230.728 C 290.466 230.619,290.618 230.321,290.721 228.725 C 290.823 227.144,290.979 226.831,291.721 226.725 C 292.462 226.620,292.619 226.307,292.721 224.725 C 292.823 223.144,292.979 222.831,293.721 222.725 C 294.464 222.619,294.619 222.307,294.722 220.700 C 294.832 218.985,294.939 218.800,295.822 218.800 C 296.729 218.800,296.800 218.655,296.800 216.800 C 296.800 214.933,296.867 214.800,297.800 214.800 C 298.733 214.800,298.800 214.667,298.800 212.800 C 298.800 210.933,298.867 210.800,299.800 210.800 C 300.733 210.800,300.800 210.667,300.800 208.800 C 300.800 206.933,300.867 206.800,301.800 206.800 C 302.733 206.800,302.800 206.667,302.800 204.800 C 302.800 203.700,302.980 202.800,303.200 202.800 C 303.420 202.800,303.600 203.074,303.600 203.410 C 303.600 204.092,305.142 204.800,306.626 204.800 C 307.232 204.800,307.600 205.030,307.600 205.410 C 307.600 206.212,309.220 206.800,311.426 206.800 C 313.052 206.800,313.200 206.884,313.200 207.800 C 313.200 208.744,313.322 208.800,315.371 208.800 C 317.448 208.800,318.800 208.158,318.800 207.171 C 318.800 206.967,319.250 206.800,319.800 206.800 C 320.600 206.800,320.800 206.600,320.800 205.800 C 320.800 205.000,321.000 204.800,321.800 204.800 L 322.800 204.800 322.800 195.828 L 322.800 186.856 323.700 186.728 L 324.600 186.600 324.706 173.700 L 324.811 160.800 325.806 160.800 L 326.800 160.800 326.800 153.000 L 326.800 145.200 325.800 145.200 C 325.000 145.200,324.800 145.000,324.800 144.200 L 324.800 143.200 319.000 143.200 L 313.200 143.200 313.200 144.200 M28.600 162.180 C 28.057 162.847,27.382 163.169,26.500 163.182 C 25.322 163.198,25.200 163.314,25.200 164.419 C 25.200 165.206,24.845 165.967,24.200 166.565 C 23.221 167.472,23.200 167.615,23.200 173.346 L 23.200 179.200 17.200 179.200 L 11.200 179.200 11.200 180.200 C 11.200 181.000,11.000 181.200,10.200 181.200 L 9.200 181.200 9.200 250.774 C 9.200 326.159,9.070 322.242,11.588 322.644 C 12.945 322.862,13.200 323.052,13.200 323.851 L 13.200 324.800 29.172 324.800 L 45.144 324.800 45.272 325.700 C 45.398 326.589,45.488 326.601,52.273 326.709 C 59.037 326.817,59.149 326.833,59.273 327.709 C 59.395 328.567,59.581 328.604,64.210 328.712 C 68.744 328.817,69.043 328.874,69.410 329.712 C 69.777 330.547,70.081 330.607,74.500 330.713 L 79.200 330.825 79.200 331.813 C 79.200 332.780,79.264 332.800,82.400 332.800 C 85.001 332.800,85.600 332.914,85.600 333.410 C 85.600 334.311,87.298 334.800,90.426 334.800 C 93.118 334.800,93.200 334.829,93.200 335.800 C 93.200 336.778,93.267 336.800,96.200 336.800 C 99.133 336.800,99.200 336.822,99.200 337.800 C 99.200 338.778,99.267 338.800,102.200 338.800 C 105.133 338.800,105.200 338.822,105.200 339.800 C 105.200 340.745,105.320 340.800,107.400 340.800 C 109.105 340.800,109.600 340.937,109.600 341.410 C 109.600 342.212,111.220 342.800,113.426 342.800 C 115.052 342.800,115.200 342.884,115.200 343.800 L 115.200 344.800 123.000 344.800 L 130.800 344.800 130.800 343.800 C 130.800 342.867,130.933 342.800,132.800 342.800 C 134.667 342.800,134.800 342.733,134.800 341.800 C 134.800 340.822,134.867 340.800,137.800 340.800 C 140.733 340.800,140.800 340.778,140.800 339.800 C 140.800 338.822,140.867 338.800,143.800 338.800 C 146.733 338.800,146.800 338.778,146.800 337.800 C 146.800 336.822,146.867 336.800,149.800 336.800 C 152.733 336.800,152.800 336.778,152.800 335.800 C 152.800 334.822,152.867 334.800,155.800 334.800 C 158.733 334.800,158.800 334.778,158.800 333.800 L 158.800 332.800 162.800 332.800 L 166.800 332.800 166.800 331.800 C 166.800 330.804,166.815 330.800,170.574 330.800 C 174.620 330.800,176.400 330.379,176.400 329.422 C 176.400 328.928,177.291 328.804,181.500 328.712 C 186.429 328.604,186.604 328.570,186.727 327.709 C 186.851 326.833,186.963 326.817,193.727 326.709 C 200.502 326.602,200.602 326.587,200.727 325.705 L 200.854 324.809 216.727 324.705 L 232.600 324.600 232.728 323.700 C 232.820 323.049,233.124 322.800,233.828 322.800 C 234.598 322.800,234.800 322.592,234.800 321.800 C 234.800 321.000,235.000 320.800,235.800 320.800 L 236.800 320.800 236.800 251.000 L 236.800 181.200 235.800 181.200 C 235.000 181.200,234.800 181.000,234.800 180.200 L 234.800 179.200 227.800 179.200 L 220.800 179.200 220.800 171.200 L 220.800 163.200 218.800 163.200 C 216.929 163.200,216.800 163.135,216.800 162.192 L 216.800 161.184 208.100 161.292 C 199.419 161.400,199.400 161.402,199.272 162.300 L 199.144 163.200 189.172 163.200 L 179.200 163.200 179.200 164.200 L 179.200 165.200 173.200 165.200 L 167.200 165.200 167.200 166.200 L 167.200 167.200 162.200 167.200 L 157.200 167.200 157.200 168.200 L 157.200 169.200 153.200 169.200 L 149.200 169.200 149.200 170.200 C 149.200 171.178,149.133 171.200,146.200 171.200 C 143.267 171.200,143.200 171.222,143.200 172.200 C 143.200 173.173,143.124 173.200,140.346 173.200 C 137.815 173.200,137.387 173.313,136.565 174.200 C 135.791 175.035,135.272 175.200,133.419 175.200 C 131.319 175.200,131.200 175.254,131.200 176.200 C 131.200 177.178,131.133 177.200,128.200 177.200 C 125.267 177.200,125.200 177.222,125.200 178.200 C 125.200 179.664,120.935 179.760,120.728 178.300 C 120.611 177.474,120.361 177.390,117.700 177.282 C 114.919 177.170,114.800 177.125,114.800 176.182 C 114.800 175.227,114.719 175.200,111.800 175.200 C 108.867 175.200,108.800 175.178,108.800 174.200 C 108.800 173.222,108.733 173.200,105.800 173.200 C 102.867 173.200,102.800 173.178,102.800 172.200 C 102.800 171.223,102.731 171.200,99.828 171.200 C 97.050 171.200,96.847 171.141,96.728 170.300 C 96.607 169.447,96.399 169.394,92.726 169.286 C 89.072 169.178,88.845 169.121,88.726 168.286 C 88.605 167.434,88.414 167.396,83.700 167.288 L 78.800 167.175 78.800 166.188 L 78.800 165.200 72.800 165.200 L 66.800 165.200 66.800 164.200 L 66.800 163.200 56.828 163.200 L 46.856 163.200 46.728 162.300 C 46.600 161.402,46.579 161.400,38.000 161.299 L 29.400 161.198 28.600 162.180 M58.565 179.800 C 59.472 180.779,59.615 180.800,65.346 180.800 L 71.200 180.800 71.200 181.800 L 71.200 182.800 76.200 182.800 L 81.200 182.800 81.200 183.800 L 81.200 184.800 85.200 184.800 L 89.200 184.800 89.200 185.800 C 89.200 186.777,89.269 186.800,92.172 186.800 C 94.950 186.800,95.153 186.859,95.272 187.700 C 95.389 188.523,95.642 188.610,98.212 188.716 C 100.671 188.817,101.073 188.942,101.412 189.716 C 101.748 190.482,102.158 190.616,104.474 190.718 C 106.885 190.824,107.161 190.923,107.274 191.718 C 107.389 192.522,107.657 192.610,110.300 192.718 C 113.081 192.830,113.200 192.875,113.200 193.818 C 113.200 194.599,113.405 194.800,114.200 194.800 L 115.200 194.800 115.168 253.500 C 115.151 285.785,115.046 311.975,114.935 311.700 C 114.814 311.400,113.985 311.200,112.862 311.200 C 111.304 311.200,110.923 311.049,110.595 310.300 C 110.250 309.514,109.857 309.385,107.500 309.282 C 106.015 309.217,104.800 309.005,104.800 308.810 C 104.800 307.671,103.447 307.200,100.171 307.200 C 96.842 307.200,96.800 307.188,96.800 306.200 L 96.800 305.200 92.800 305.200 L 88.800 305.200 88.800 304.200 L 88.800 303.200 84.800 303.200 L 80.800 303.200 80.800 302.200 L 80.800 301.200 74.800 301.200 L 68.800 301.200 68.800 300.200 L 68.800 299.200 60.800 299.200 L 52.800 299.200 52.800 298.200 L 52.800 297.200 46.800 297.200 L 40.800 297.200 40.800 238.000 L 40.800 178.800 49.219 178.800 L 57.638 178.800 58.565 179.800 M205.200 238.000 L 205.200 297.200 199.200 297.200 L 193.200 297.200 193.200 298.200 L 193.200 299.200 184.829 299.200 C 176.326 299.200,175.200 299.391,175.200 300.829 C 175.200 301.037,173.010 301.200,170.200 301.200 L 165.200 301.200 165.200 302.187 L 165.200 303.175 160.500 303.287 C 156.062 303.394,155.778 303.450,155.405 304.300 C 155.048 305.114,154.734 305.200,152.105 305.200 C 149.284 305.200,149.200 305.229,149.200 306.186 C 149.200 307.158,149.147 307.173,145.300 307.286 C 141.600 307.394,141.393 307.446,141.272 308.300 C 141.153 309.141,140.950 309.200,138.172 309.200 C 135.269 309.200,135.200 309.223,135.200 310.200 C 135.200 311.145,135.080 311.200,133.000 311.200 L 130.800 311.200 130.800 253.000 L 130.800 194.800 131.800 194.800 C 132.600 194.800,132.800 194.600,132.800 193.800 C 132.800 192.867,132.933 192.800,134.800 192.800 C 136.667 192.800,136.800 192.733,136.800 191.800 C 136.800 190.822,136.867 190.800,139.800 190.800 C 142.733 190.800,142.800 190.778,142.800 189.800 C 142.800 188.822,142.867 188.800,145.800 188.800 C 148.721 188.800,148.800 188.774,148.800 187.815 C 148.800 186.848,148.866 186.828,152.500 186.715 C 155.898 186.609,156.232 186.527,156.595 185.700 C 156.949 184.892,157.271 184.800,159.749 184.800 C 162.178 184.800,162.619 184.680,163.435 183.800 C 164.311 182.855,164.594 182.800,168.581 182.800 L 172.800 182.800 172.800 181.800 L 172.800 180.800 178.700 180.796 C 184.470 180.792,184.618 180.770,185.400 179.814 L 186.200 178.837 195.700 178.818 L 205.200 178.800 205.200 238.000 M53.200 194.200 C 53.200 195.133,53.067 195.200,51.200 195.200 L 49.200 195.200 49.200 202.000 L 49.200 208.800 51.200 208.800 C 53.067 208.800,53.200 208.867,53.200 209.800 L 53.200 210.800 59.105 210.800 C 64.845 210.800,65.021 210.825,65.405 211.700 C 65.785 212.565,66.024 212.604,71.500 212.711 L 77.200 212.822 77.200 213.811 C 77.200 214.797,77.212 214.800,81.200 214.800 L 85.200 214.800 85.200 215.800 L 85.200 216.800 89.200 216.800 L 93.200 216.800 93.200 217.800 L 93.200 218.800 98.000 218.800 L 102.800 218.800 102.800 217.800 C 102.800 217.000,103.000 216.800,103.800 216.800 C 104.733 216.800,104.800 216.667,104.800 214.800 C 104.800 212.923,104.863 212.800,105.819 212.800 C 107.283 212.800,107.179 208.054,105.700 207.405 C 105.205 207.188,104.800 206.679,104.800 206.274 C 104.800 204.797,102.634 203.200,100.631 203.200 C 98.945 203.200,98.800 203.121,98.800 202.200 C 98.800 201.223,98.731 201.200,95.828 201.200 C 93.050 201.200,92.847 201.141,92.728 200.300 C 92.606 199.442,92.407 199.395,88.500 199.286 C 85.186 199.194,84.400 199.058,84.400 198.576 C 84.400 197.627,82.624 197.200,78.669 197.200 C 75.237 197.200,74.963 197.139,74.595 196.300 C 74.211 195.425,74.015 195.397,67.500 195.290 L 60.800 195.181 60.800 194.190 C 60.800 193.206,60.777 193.200,57.000 193.200 C 53.213 193.200,53.200 193.204,53.200 194.200 M183.467 193.467 C 183.320 193.613,183.200 194.063,183.200 194.467 C 183.200 195.144,182.758 195.200,177.426 195.200 C 171.477 195.200,169.600 195.533,169.600 196.590 C 169.600 197.096,168.920 197.200,165.626 197.200 C 161.377 197.200,159.600 197.610,159.600 198.590 C 159.600 199.091,158.962 199.200,156.029 199.200 C 152.532 199.200,151.200 199.649,151.200 200.829 C 151.200 201.033,149.850 201.200,148.200 201.200 C 145.267 201.200,145.200 201.222,145.200 202.200 C 145.200 203.133,145.067 203.200,143.200 203.200 C 141.333 203.200,141.200 203.267,141.200 204.200 C 141.200 205.000,141.000 205.200,140.200 205.200 L 139.200 205.200 139.200 210.000 L 139.200 214.800 140.200 214.800 C 141.000 214.800,141.200 215.000,141.200 215.800 C 141.200 216.600,141.400 216.800,142.200 216.800 C 143.000 216.800,143.200 217.000,143.200 217.800 C 143.200 218.794,143.223 218.800,146.854 218.800 C 150.238 218.800,150.577 218.726,151.435 217.800 C 152.276 216.893,152.661 216.800,155.581 216.800 C 158.748 216.800,158.800 216.784,158.800 215.800 L 158.800 214.800 162.800 214.800 L 166.800 214.800 166.800 213.800 L 166.800 212.800 171.654 212.800 C 176.318 212.800,176.545 212.761,177.435 211.800 C 178.358 210.805,178.394 210.800,185.581 210.800 L 192.800 210.800 192.800 209.800 C 192.800 209.000,193.000 208.800,193.800 208.800 C 194.600 208.800,194.800 208.600,194.800 207.800 C 194.800 207.000,195.000 206.800,195.800 206.800 L 196.800 206.800 196.800 202.000 L 196.800 197.200 195.800 197.200 C 195.000 197.200,194.800 197.000,194.800 196.200 C 194.800 195.400,194.600 195.200,193.800 195.200 C 193.000 195.200,192.800 195.000,192.800 194.200 L 192.800 193.200 188.267 193.200 C 185.773 193.200,183.613 193.320,183.467 193.467 M54.145 218.600 C 53.976 219.039,53.284 219.200,51.557 219.200 L 49.200 219.200 49.200 221.200 C 49.200 223.067,49.133 223.200,48.200 223.200 C 47.234 223.200,47.200 223.290,47.200 225.854 C 47.200 228.171,47.327 228.626,48.200 229.435 C 48.845 230.033,49.200 230.794,49.200 231.581 C 49.200 232.615,49.352 232.800,50.200 232.800 C 51.000 232.800,51.200 233.000,51.200 233.800 L 51.200 234.800 57.172 234.800 C 63.061 234.800,63.146 234.813,63.272 235.700 C 63.397 236.581,63.524 236.602,69.300 236.711 L 75.200 236.821 75.200 237.811 C 75.200 238.797,75.213 238.800,79.172 238.800 C 82.987 238.800,83.149 238.836,83.272 239.700 C 83.393 240.553,83.601 240.606,87.274 240.714 C 90.928 240.822,91.155 240.879,91.274 241.714 C 91.396 242.575,91.560 242.603,97.100 242.711 L 102.800 242.822 102.800 241.811 C 102.800 240.999,102.997 240.800,103.800 240.800 C 104.600 240.800,104.800 240.600,104.800 239.800 C 104.800 239.250,104.967 238.800,105.171 238.800 C 107.008 238.800,107.480 234.122,105.800 232.565 C 105.155 231.967,104.800 231.206,104.800 230.419 C 104.800 229.385,104.648 229.200,103.800 229.200 C 103.000 229.200,102.800 229.000,102.800 228.200 C 102.800 227.269,102.665 227.200,100.828 227.200 C 99.087 227.200,98.841 227.094,98.728 226.300 C 98.607 225.446,98.400 225.394,94.700 225.286 C 90.853 225.173,90.800 225.158,90.800 224.186 C 90.800 223.204,90.784 223.200,86.800 223.200 C 84.600 223.200,82.800 223.033,82.800 222.829 C 82.800 221.564,81.498 221.200,76.971 221.200 C 73.142 221.200,72.400 221.101,72.400 220.590 C 72.400 219.522,70.505 219.200,64.217 219.200 C 59.136 219.200,58.046 219.097,57.855 218.600 C 57.703 218.203,57.076 218.000,56.000 218.000 C 54.924 218.000,54.297 218.203,54.145 218.600 M175.200 220.200 L 175.200 221.200 170.346 221.200 C 165.701 221.200,165.452 221.242,164.578 222.186 C 163.738 223.093,163.336 223.180,159.532 223.286 C 155.592 223.395,155.394 223.442,155.272 224.300 C 155.154 225.134,154.942 225.200,152.398 225.200 C 149.296 225.200,147.600 225.691,147.600 226.590 C 147.600 227.063,147.105 227.200,145.400 227.200 C 143.320 227.200,143.200 227.255,143.200 228.200 C 143.200 229.000,143.000 229.200,142.200 229.200 C 141.400 229.200,141.200 229.400,141.200 230.200 C 141.200 231.000,141.000 231.200,140.200 231.200 L 139.200 231.200 139.200 236.000 L 139.200 240.800 140.200 240.800 C 141.000 240.800,141.200 241.000,141.200 241.800 L 141.200 242.800 148.000 242.800 L 154.800 242.800 154.800 241.815 C 154.800 240.848,154.866 240.828,158.500 240.715 C 161.898 240.609,162.232 240.527,162.595 239.700 C 162.966 238.855,163.229 238.800,166.895 238.800 C 170.794 238.800,170.800 238.798,170.800 237.800 L 170.800 236.800 176.800 236.800 L 182.800 236.800 182.800 235.811 L 182.800 234.821 188.700 234.711 C 194.476 234.602,194.603 234.581,194.728 233.700 C 194.820 233.049,195.124 232.800,195.828 232.800 L 196.800 232.800 196.800 227.000 L 196.800 221.200 195.800 221.200 C 195.000 221.200,194.800 221.000,194.800 220.200 L 194.800 219.200 185.000 219.200 L 175.200 219.200 175.200 220.200 M51.200 244.200 C 51.200 245.000,51.000 245.200,50.200 245.200 L 49.200 245.200 49.200 251.000 L 49.200 256.800 50.200 256.800 C 51.000 256.800,51.200 257.000,51.200 257.800 L 51.200 258.800 56.200 258.800 L 61.200 258.800 61.200 259.800 L 61.200 260.800 67.200 260.800 L 73.200 260.800 73.200 261.800 L 73.200 262.800 77.200 262.800 C 79.400 262.800,81.200 262.967,81.200 263.171 C 81.200 264.353,82.532 264.800,86.048 264.800 C 89.364 264.800,89.709 264.876,90.565 265.800 C 91.469 266.776,91.629 266.800,97.146 266.800 L 102.800 266.800 102.800 265.800 C 102.800 265.000,103.000 264.800,103.800 264.800 C 104.592 264.800,104.800 264.598,104.800 263.828 C 104.800 263.124,105.049 262.820,105.700 262.728 C 107.193 262.516,107.307 257.200,105.818 257.200 C 104.863 257.200,104.800 257.076,104.800 255.200 C 104.800 253.333,104.733 253.200,103.800 253.200 C 103.000 253.200,102.800 253.000,102.800 252.200 C 102.800 251.222,102.733 251.200,99.800 251.200 C 96.867 251.200,96.800 251.178,96.800 250.200 L 96.800 249.200 92.800 249.200 L 88.800 249.200 88.800 248.200 C 88.800 247.202,88.794 247.200,84.895 247.200 C 81.229 247.200,80.966 247.145,80.595 246.300 C 80.215 245.435,79.976 245.396,74.500 245.289 L 68.800 245.178 68.800 244.189 L 68.800 243.200 60.000 243.200 L 51.200 243.200 51.200 244.200 M177.680 243.680 C 177.416 243.944,177.200 244.394,177.200 244.680 C 177.200 245.078,176.062 245.200,172.346 245.200 C 167.682 245.200,167.455 245.239,166.565 246.200 C 165.689 247.145,165.406 247.200,161.419 247.200 C 157.202 247.200,157.200 247.200,157.200 248.186 C 157.200 249.158,157.147 249.173,153.300 249.286 C 149.600 249.394,149.393 249.446,149.272 250.300 C 149.153 251.141,148.950 251.200,146.172 251.200 C 143.269 251.200,143.200 251.223,143.200 252.200 C 143.200 253.000,143.000 253.200,142.200 253.200 C 141.400 253.200,141.200 253.400,141.200 254.200 C 141.200 255.003,141.001 255.200,140.187 255.200 L 139.175 255.200 139.287 259.900 C 139.396 264.430,139.433 264.605,140.300 264.728 C 140.951 264.820,141.200 265.124,141.200 265.828 L 141.200 266.800 148.371 266.800 C 155.612 266.800,156.800 266.570,156.800 265.171 C 156.800 264.967,158.084 264.800,159.654 264.800 C 162.185 264.800,162.613 264.687,163.435 263.800 C 164.311 262.855,164.594 262.800,168.581 262.800 L 172.800 262.800 172.800 261.809 L 172.800 260.819 179.700 260.709 C 186.513 260.601,186.602 260.589,186.728 259.700 C 186.851 258.836,187.013 258.800,190.828 258.800 C 194.798 258.800,194.800 258.800,194.800 257.800 C 194.800 257.000,195.000 256.800,195.800 256.800 L 196.800 256.800 196.800 251.000 L 196.800 245.200 195.800 245.200 C 195.000 245.200,194.800 245.000,194.800 244.200 L 194.800 243.200 186.480 243.200 C 180.542 243.200,178.023 243.337,177.680 243.680 M51.200 268.190 C 51.200 269.001,51.003 269.200,50.200 269.200 C 49.408 269.200,49.200 269.402,49.200 270.172 C 49.200 270.876,48.951 271.180,48.300 271.272 C 47.451 271.393,47.394 271.608,47.285 275.100 L 47.170 278.800 48.163 278.800 C 49.064 278.800,49.167 278.976,49.278 280.700 L 49.400 282.600 52.300 282.718 C 55.081 282.830,55.200 282.875,55.200 283.818 L 55.200 284.800 61.400 284.800 C 66.689 284.800,67.600 284.890,67.600 285.410 C 67.600 286.429,69.423 286.800,74.426 286.800 L 79.200 286.800 79.200 287.800 L 79.200 288.800 83.200 288.800 L 87.200 288.800 87.200 289.800 L 87.200 290.800 91.200 290.800 L 95.200 290.800 95.200 291.800 C 95.200 292.771,95.280 292.800,98.000 292.800 C 100.720 292.800,100.800 292.771,100.800 291.800 C 100.800 290.867,100.933 290.800,102.800 290.800 L 104.800 290.800 104.800 288.800 C 104.800 286.924,104.863 286.800,105.818 286.800 C 107.307 286.800,107.193 281.484,105.700 281.272 C 104.906 281.159,104.800 280.913,104.800 279.172 L 104.800 277.200 102.800 277.200 C 100.933 277.200,100.800 277.133,100.800 276.200 L 100.800 275.200 96.800 275.200 L 92.800 275.200 92.800 274.200 L 92.800 273.200 88.800 273.200 L 84.800 273.200 84.800 272.200 C 84.800 271.202,84.794 271.200,80.895 271.200 C 77.229 271.200,76.966 271.145,76.595 270.300 C 76.216 269.436,75.976 269.396,70.526 269.289 C 65.007 269.181,64.849 269.154,64.726 268.289 C 64.602 267.416,64.481 267.398,57.900 267.290 L 51.200 267.181 51.200 268.190 M181.200 268.200 L 181.200 269.200 175.346 269.200 C 169.615 269.200,169.472 269.221,168.565 270.200 C 167.689 271.145,167.406 271.200,163.419 271.200 L 159.200 271.200 159.200 272.200 L 159.200 273.200 155.200 273.200 L 151.200 273.200 151.200 274.200 C 151.200 275.173,151.124 275.200,148.346 275.200 C 145.815 275.200,145.387 275.313,144.565 276.200 C 143.967 276.845,143.206 277.200,142.419 277.200 C 141.385 277.200,141.200 277.352,141.200 278.200 C 141.200 279.000,141.000 279.200,140.200 279.200 L 139.200 279.200 139.200 284.000 L 139.200 288.800 140.200 288.800 C 141.000 288.800,141.200 289.000,141.200 289.800 C 141.200 290.592,141.402 290.800,142.172 290.800 C 142.876 290.800,143.180 291.049,143.272 291.700 C 143.393 292.549,143.608 292.606,147.100 292.715 L 150.800 292.830 150.800 291.815 C 150.800 290.819,150.855 290.800,153.800 290.800 C 156.733 290.800,156.800 290.778,156.800 289.800 L 156.800 288.800 160.800 288.800 L 164.800 288.800 164.800 287.800 L 164.800 286.800 169.800 286.800 L 174.800 286.800 174.800 285.808 L 174.800 284.817 182.700 284.708 C 190.551 284.601,190.601 284.594,190.728 283.700 C 190.841 282.906,191.087 282.800,192.828 282.800 C 194.665 282.800,194.800 282.731,194.800 281.800 C 194.800 281.000,195.000 280.800,195.800 280.800 L 196.800 280.800 196.800 276.169 C 196.800 271.160,195.909 269.200,193.631 269.200 C 193.011 269.200,192.800 268.946,192.800 268.200 L 192.800 267.200 187.000 267.200 L 181.200 267.200 181.200 268.200 " stroke="none" fill="#040404" fill-rule="evenodd"></path><path id="path1" d="" stroke="none" fill="#080404" fill-rule="evenodd"></path><path id="path2" d="" stroke="none" fill="#080404" fill-rule="evenodd"></path><path id="path3" d="" stroke="none" fill="#080404" fill-rule="evenodd"></path><path id="path4" d="" stroke="none" fill="#080404" fill-rule="evenodd"></path></g></svg>